<?xml version="1.0" encoding="UTF-8"?> <svg xmlns="http://www.w3.org/2000/svg" xmlns:xlink="http://www.w3.org/1999/xlink" width="1124px" height="630px" viewBox="0 0 1124 630" version="1.1"><!-- Generator: Sketch 58 (84663) - https://sketch.com --><title>Illustration/Blog/Hire Wordpress Dev</title><desc>Created with Sketch.</desc><g id="Illustration/Blog/Hire-Wordpress-Dev" stroke="none" stroke-width="1" fill="none" fill-rule="evenodd"><g id="/Hire-Wordpress-Dev" transform="translate(291.000000, 133.000000)"><g id="Group" opacity="0.2" transform="translate(16.640000, 30.720000)" fill="#000000" fill-rule="nonzero"><path d="M197.76,327.68 C160.768,328.064 123.904,328.448 86.912,328.96 C85.888,328.96 84.864,329.088 83.84,329.216 C81.792,329.344 81.024,328.576 81.408,326.528 C81.536,325.888 81.792,325.12 82.048,324.48 C113.152,222.848 144.256,121.216 175.36,19.584 C175.872,18.048 176.128,16.384 177.92,15.744 C178.304,15.616 178.56,14.976 178.816,14.592 C181.888,9.856 186.24,6.4 191.232,3.84 C191.872,3.584 192.768,3.2 192.896,2.688 C193.536,0.128 195.456,0.512 197.376,0.512 C261.632,0.64 325.76,0.768 390.016,1.024 C396.8,1.024 402.944,3.2 407.936,7.808 C409.984,9.6 411.264,11.648 411.008,14.464 C410.752,16.896 410.752,19.328 410.496,21.76 C408.96,34.176 403.968,45.568 400.256,57.344 C372.352,145.408 344.32,233.472 316.416,321.408 C316.288,322.048 316.032,322.56 315.904,323.2 C314.88,326.144 313.984,326.784 310.656,326.784 C294.784,326.912 278.912,327.168 263.04,327.296 C241.408,327.296 219.648,327.424 197.76,327.68 C197.76,327.68 197.76,327.68 197.76,327.68 Z" id="Path"></path><path d="M58.112,241.152 C57.088,244.096 56.064,247.04 54.784,250.24 C56.192,250.24 57.088,250.368 58.112,250.368 C65.408,250.368 72.704,250.368 79.872,250.368 C80.64,250.368 81.536,250.368 82.304,250.368 C84.48,250.624 85.248,251.52 84.736,253.568 C84.48,254.72 83.968,255.872 83.712,257.024 C82.56,260.608 81.408,264.192 80.256,267.904 C79.104,271.744 78.208,272.256 74.368,272.384 C66.304,272.512 58.24,272.512 50.048,272.64 C48.896,272.64 47.616,272.64 46.336,272.64 C45.184,275.84 44.16,278.656 43.008,281.984 C44.544,281.984 45.696,281.984 46.848,281.984 C54.144,281.984 61.44,281.984 68.608,281.984 C69.376,281.984 70.272,281.984 71.04,281.984 C73.344,282.24 74.24,283.264 73.6,285.44 C71.936,290.816 70.272,296.192 68.48,301.568 C67.84,303.488 66.176,304 64.256,304 C60.416,304.128 56.448,304.256 52.608,304.256 C36.736,304.512 20.864,304.64 4.992,304.896 C4.48,304.896 3.968,304.896 3.456,304.896 C0.768,304.64 1.16417986e-12,303.488 0.768,300.928 C2.816,295.296 4.864,289.792 6.912,284.288 C7.552,282.496 8.832,282.24 10.496,282.24 C18.816,282.24 27.136,282.24 35.328,282.112 C36.48,282.112 37.504,282.112 38.784,282.112 C39.808,279.168 40.832,276.352 41.984,273.152 C40.448,273.152 39.424,273.024 38.4,273.024 C31.104,273.024 23.808,273.152 16.64,273.28 C15.872,273.28 14.976,273.28 14.208,273.28 C11.904,273.024 11.008,271.872 11.776,269.696 C13.824,263.936 16,258.176 18.176,252.416 C18.816,250.752 20.096,250.496 21.632,250.624 C30.08,250.624 38.4,250.624 46.848,250.624 C48,250.624 49.024,250.624 50.56,250.624 C51.584,247.68 52.736,244.736 53.888,241.408 C52.224,241.408 51.072,241.408 50.048,241.408 C41.856,241.536 33.664,241.664 25.472,241.792 C19.968,241.92 19.328,241.024 21.248,235.776 C22.912,231.168 24.704,226.56 26.368,221.952 C27.392,219.264 27.52,219.136 30.336,219.136 C49.664,219.008 68.992,219.008 88.32,218.88 C93.568,218.88 94.08,219.648 92.544,224.64 C91.264,228.48 90.112,232.448 88.832,236.288 C87.424,240.512 87.04,240.768 82.432,240.896 C75.008,241.024 67.712,241.152 60.288,241.28 C59.904,241.152 59.264,241.152 58.112,241.152 Z" id="Path"></path></g><g id="Group"><path d="M424.064,333.696 C421.12,334.08 420.864,333.952 420.352,330.88 C414.72,299.008 399.744,272.128 377.472,248.96 C374.144,245.504 370.688,243.328 365.696,243.2 C358.528,243.072 351.488,241.92 344.32,241.408 C341.12,241.152 341.632,241.152 340.736,243.84 C331.904,272 323.072,300.288 314.368,328.448 C314.112,329.216 313.856,329.984 313.6,330.752 C313.216,331.904 312.32,332.544 311.04,332.544 C310.272,332.544 309.376,332.544 308.608,332.544 C297.6,332.544 286.464,332.672 275.456,332.672 C274.432,332.672 273.28,332.544 272,333.056 C272.896,335.232 274.56,336.64 275.84,338.304 C278.144,341.12 278.272,342.272 275.712,344.832 C273.408,347.264 270.976,349.568 268.544,352 C267.136,353.408 265.856,353.28 264.576,351.616 C263.552,350.336 262.784,348.928 261.888,347.52 C259.456,343.424 257.024,339.2 254.336,335.232 C252.672,335.872 251.648,337.152 250.368,338.176 C249.728,338.688 249.088,339.2 248.448,339.712 C246.4,340.864 244.864,340.224 244.224,338.048 C243.968,337.024 243.712,335.872 243.584,334.72 C243.456,333.44 242.816,332.928 241.664,332.928 C241.024,332.928 240.384,332.928 239.872,332.928 C186.24,333.184 132.608,333.568 78.976,333.824 C78.72,333.824 78.336,333.824 78.08,333.824 C74.624,333.824 73.6,332.416 74.624,328.96 C75.776,325.12 76.928,321.28 78.08,317.568 C85.888,292.224 93.824,266.752 101.632,241.408 C101.76,240.768 102.016,240.256 102.144,239.616 C102.528,238.592 102.016,238.08 100.992,238.08 C97.664,238.208 94.208,237.824 90.88,238.208 C89.728,238.08 88.704,238.08 87.552,237.952 C83.84,237.824 80,237.824 76.288,237.696 C73.6,237.568 72.96,236.416 74.112,233.984 C75.264,231.424 76.8,228.992 77.824,226.304 C78.976,224.896 79.488,223.232 80.256,221.696 C85.504,211.456 90.624,201.344 95.744,191.104 C97.024,188.416 98.688,187.264 101.76,187.392 C106.368,187.648 110.976,187.52 115.584,187.52 C118.272,187.52 118.272,187.52 119.04,184.832 C124.8,166.272 130.432,147.712 136.192,129.152 C137.088,126.08 137.984,123.136 139.008,120.064 C140.416,119.808 141.696,119.808 143.104,120.064 C142.976,120.704 142.848,121.216 142.72,121.856 C136.32,142.464 130.048,163.072 123.648,183.68 C123.264,184.832 122.368,185.984 123.008,187.52 C123.776,187.52 124.544,187.52 125.184,187.52 C131.968,187.52 138.752,187.52 145.408,187.648 C148.864,187.648 149.76,189.312 148.224,192.384 C140.928,206.72 133.632,220.928 126.336,235.264 C125.184,237.568 123.648,238.592 120.96,238.464 C117.12,238.208 113.152,238.208 109.312,238.08 C106.752,238.08 106.752,238.08 105.984,240.512 C97.024,269.312 88.192,298.112 79.232,326.912 C78.976,327.68 78.464,328.576 79.104,329.728 C133.504,329.472 187.904,329.088 242.688,328.832 C241.28,322.048 240.512,315.52 238.848,309.12 C238.72,307.968 238.592,306.944 238.464,305.792 C238.208,304 237.696,302.208 237.568,300.416 C237.312,297.856 238.976,296.96 241.28,298.112 C242.176,298.624 242.944,299.264 243.84,299.776 C246.784,301.696 249.472,304.128 252.672,305.664 C253.44,306.816 254.72,307.328 255.744,308.096 C259.968,311.168 264.32,314.112 268.544,317.184 C271.488,319.232 271.488,320.128 268.8,322.688 C267.904,323.584 266.752,324.352 266.112,325.504 C267.264,327.936 268.928,328.832 271.744,328.704 C283.776,328.448 295.68,328.448 307.712,328.32 C310.528,328.32 310.528,328.32 311.296,325.76 C319.872,298.24 328.448,270.72 337.024,243.2 C337.28,242.56 337.664,241.92 337.024,241.024 C336.384,241.024 335.744,241.024 335.104,241.152 C330.88,241.664 326.528,242.176 322.304,242.688 C314.88,243.584 307.456,244.352 300.032,245.12 C296.448,245.504 292.864,245.888 289.28,245.248 C286.08,244.608 284.16,242.688 284.032,239.488 C284.032,238.72 284.032,237.824 284.16,237.056 C285.568,232.32 288.64,228.992 292.736,226.432 C293.504,225.92 294.4,225.664 295.04,224.896 C295.424,224.768 295.808,224.896 295.68,224.256 L295.68,224.384 C296.064,224.512 296.448,224.384 296.832,224.256 C301.184,222.208 305.92,221.184 310.656,220.288 C317.824,219.008 325.12,218.624 332.288,217.6 C335.744,217.088 336.64,216.064 336.768,212.608 C336.896,208.896 335.744,205.696 333.568,202.88 C328.704,196.608 322.432,192.128 315.136,189.056 C314.112,188.672 312.96,188.288 311.936,189.056 C309.888,189.056 308.352,190.464 306.688,191.232 C299.776,194.176 292.864,194.56 285.696,192.384 C282.624,191.488 280.704,189.568 280.832,186.112 C281.472,184.192 282.496,182.528 284.16,181.504 C288.512,178.816 292.352,175.488 296.192,172.032 C300.032,168.448 304.64,167.168 309.76,168.064 C311.296,168.32 312.96,168.448 314.624,168.576 C314.624,167.296 313.856,166.912 313.344,166.272 C309.248,161.792 306.176,156.544 303.36,151.168 C301.184,146.944 300.032,142.592 300.544,137.856 C300.928,134.528 301.952,131.456 304.512,129.152 C306.816,127.104 309.12,127.36 311.296,129.536 C312.192,130.56 312.96,131.712 313.472,132.864 C315.904,138.624 319.872,143.232 324.736,147.2 C325.248,147.584 325.632,148.48 326.656,147.968 C326.144,144.128 326.4,140.288 327.68,136.576 C328.32,134.656 329.088,132.992 330.496,131.584 C333.056,129.152 336,129.28 338.304,131.84 C339.584,133.248 340.48,134.912 341.12,136.576 C343.68,142.336 347.136,147.456 350.72,152.704 C353.664,157.056 357.376,160.896 361.216,164.608 C362.24,163.84 362.24,162.816 362.496,162.048 C373.248,127.744 383.872,93.312 394.624,59.008 C398.208,47.36 401.408,35.712 405.76,24.32 C406.144,23.424 406.144,22.528 406.272,21.632 C407.04,15.104 401.152,5.376 392.192,4.48 C390.016,4.224 387.968,4.096 385.792,4.096 C322.56,4.096 259.2,3.968 195.968,3.968 C194.944,3.968 193.92,3.84 192.896,4.224 C184.064,7.168 177.408,12.416 174.08,21.376 C171.136,29.312 168.832,37.504 166.4,45.696 C164.992,45.696 163.712,45.696 162.304,45.696 C162.048,44.16 163.072,43.008 163.456,41.728 C165.248,35.84 167.04,29.952 168.832,24.192 C169.728,21.376 170.752,18.56 172.16,16 C176.256,8.192 182.912,3.584 190.976,0.768 C192.896,0.128 194.816,0.256 196.736,0.256 C254.848,0.384 312.832,0.384 370.944,0.512 C377.216,0.512 383.488,0.512 389.632,0.64 C402.048,0.896 408.832,10.496 409.984,19.2 C410.24,21.504 410.112,23.808 409.344,25.856 C406.272,33.28 404.352,40.96 401.92,48.512 C389.888,87.04 377.856,125.568 365.824,164.224 C365.568,164.864 365.44,165.632 365.184,166.272 C364.544,167.808 364.8,168.832 366.08,169.984 C369.28,173.056 372.352,176.128 375.808,178.944 C381.056,183.296 385.92,188.288 390.656,193.152 C419.712,222.208 443.776,255.104 464.384,290.56 C468.864,298.368 473.6,306.048 478.208,313.728 C480.64,317.824 482.944,322.048 484.992,326.4 C485.376,327.296 485.888,328.32 486.144,329.216 C487.04,332.032 486.016,333.056 482.944,332.8 C481.536,327.168 478.464,322.304 475.648,317.312 C470.656,308.352 465.024,299.776 460.032,290.944 C454.912,281.984 449.536,273.152 443.776,264.576 C434.304,250.624 424.32,237.056 413.568,224 C404.48,212.992 394.624,202.496 384.512,192.384 C377.472,185.344 369.792,178.816 362.496,172.032 C352,162.176 343.168,151.168 337.152,138.112 C336.64,136.96 336.256,135.552 334.848,134.912 C334.08,134.016 333.44,134.4 332.8,135.04 C332.032,135.936 331.52,137.088 331.136,138.24 C329.728,142.464 329.6,146.432 331.264,150.656 C332.16,153.088 333.44,154.88 336,155.648 C338.304,157.184 340.48,158.72 342.528,160.64 C347.904,165.632 352.256,171.648 358.528,175.872 C359.68,176.64 359.808,177.792 359.04,178.816 C358.272,179.84 357.248,179.584 356.352,179.072 C354.688,178.176 353.28,177.024 352,175.744 C348.16,171.776 344.192,167.936 340.352,163.968 C338.688,162.304 336.896,160.768 334.848,159.616 C331.776,157.952 328.832,156.16 326.144,153.984 C319.488,148.864 313.472,143.232 310.016,135.424 C309.632,134.528 309.376,133.504 308.352,132.992 C307.84,132.736 307.2,131.968 306.56,132.992 C306.304,133.248 305.92,133.632 305.792,133.888 C303.232,138.496 303.744,143.232 305.792,147.712 C309.248,155.264 313.984,162.048 319.872,167.936 C321.152,169.088 322.56,169.856 324.224,170.112 C325.76,170.368 327.296,170.496 328.704,170.752 C332.416,171.904 335.488,173.952 338.304,176.64 C342.4,180.352 345.984,184.576 349.952,188.416 C350.592,188.928 351.104,189.568 351.232,190.464 C351.488,191.36 351.488,192.384 350.464,192.896 C349.568,193.408 348.672,193.28 348.032,192.512 C347.776,192.256 347.648,192 347.392,191.872 C343.552,187.392 339.2,183.296 334.976,179.2 C332.928,177.28 330.624,175.616 327.936,175.104 C320.768,173.824 313.6,172.8 306.304,172.416 C303.744,172.288 301.44,173.056 299.52,174.72 C295.424,178.176 291.584,181.76 287.232,184.832 C286.848,184.96 286.464,185.088 286.08,185.344 C284.16,187.008 284.288,188.288 286.72,189.056 C288.768,189.824 290.816,190.336 292.992,190.336 C298.368,190.464 303.36,189.184 307.968,186.496 C311.168,184.576 314.368,184.704 317.568,186.368 C321.152,188.16 324.608,189.952 327.808,192.512 C331.648,195.584 335.36,198.784 337.92,203.008 C338.816,204.544 338.944,206.336 340.352,207.616 C340.736,209.536 341.12,211.456 340.992,213.376 C340.736,217.984 338.048,221.056 333.44,221.952 C327.552,223.104 321.536,223.232 315.52,224.128 C309.632,225.152 303.744,225.792 298.368,228.352 C295.168,229.888 291.968,231.424 289.92,234.624 C288.896,235.52 288.384,236.8 288.128,238.08 C287.616,240.896 288.384,241.792 291.328,241.92 C292.352,241.92 293.376,241.92 294.4,241.92 C299.648,241.92 304.768,240.768 309.888,240.512 C313.728,240.256 317.568,239.872 321.408,239.232 C329.088,238.08 336.768,237.056 344.576,237.568 C352.896,238.208 361.216,238.848 369.536,239.616 C371.968,239.872 374.4,240.256 376.32,242.176 C382.336,247.936 387.968,253.824 393.088,260.48 C401.024,270.848 407.68,281.856 413.184,293.76 C417.408,302.976 420.736,312.448 423.04,322.432 C423.552,326.016 424.832,329.728 424.064,333.696 Z M242.688,304.64 C242.176,305.92 242.816,306.688 242.944,307.456 C244.352,315.264 245.76,323.072 247.168,330.752 C247.424,332.032 247.04,333.824 248.448,334.208 C249.6,334.464 250.368,332.928 251.264,332.032 C253.952,329.6 255.744,329.728 257.664,332.672 C259.84,335.872 261.76,339.2 263.808,342.528 C264.704,344.064 265.344,346.624 266.752,346.88 C268.544,347.264 269.696,344.704 270.976,343.424 C272.64,341.888 272.768,341.12 271.36,339.584 C268.288,336.256 265.856,332.288 262.656,328.96 C259.968,326.144 259.968,325.632 262.656,322.944 C262.912,322.688 263.296,322.432 263.552,322.048 C265.088,320.512 265.088,320.384 263.424,319.104 C259.456,316.16 255.232,313.344 251.264,310.4 C248.576,308.48 245.76,306.432 242.688,304.64 Z M102.4,226.56 C103.68,226.432 104.192,225.408 104.832,224.384 C108.8,217.856 113.024,211.456 117.376,205.184 C117.632,204.8 118.016,204.416 118.144,203.904 C118.528,203.136 118.4,202.24 117.632,201.728 C116.736,201.088 115.84,201.088 115.2,201.856 C114.688,202.368 114.176,202.88 113.792,203.52 C109.568,209.792 105.344,216.064 101.504,222.464 C101.12,223.104 100.736,223.744 100.608,224.384 C100.224,225.536 101.248,226.56 102.4,226.56 Z M100.864,204.16 C100.608,204.288 100.224,204.288 99.84,204.544 C97.28,206.464 94.848,208.384 92.416,210.304 C91.264,211.2 90.88,212.48 91.392,213.888 C92.288,216.32 93.824,218.368 95.616,220.16 C96.256,220.8 97.024,220.928 97.792,220.416 C98.688,219.776 98.816,218.88 98.432,217.984 C98.304,217.472 97.92,217.088 97.664,216.704 C96.896,215.552 95.36,214.528 95.488,213.12 C95.744,211.584 97.664,211.072 98.816,210.176 C99.968,209.152 101.248,208.256 102.4,207.232 C103.04,206.592 103.168,205.824 102.784,204.928 C102.528,204.416 101.888,204.16 100.864,204.16 Z M124.416,213.76 C123.392,214.912 122.112,215.168 121.088,215.808 C119.808,216.576 118.4,217.344 117.12,218.24 C116.224,218.88 115.84,219.904 116.48,220.928 C117.12,221.824 118.016,221.952 118.912,221.568 C121.728,220.032 124.544,218.624 127.104,216.832 C128.896,215.68 129.024,214.144 128,212.224 C127.104,210.56 125.696,209.408 124.544,208 C123.776,207.104 122.88,206.336 121.6,207.104 C120.576,207.744 120.448,208.896 121.472,210.304 C122.496,211.456 123.392,212.48 124.416,213.76 Z" id="Shape" fill="#242940" fill-rule="nonzero"></path><path d="M113.572516,53.3281872 C122.409072,53.3281872 132.205648,44.7760936 132,33 C131.794352,21.2239064 126.752,13.7898761 114.944,13.7898761 C103.136,13.7898761 96.2319934,21.2239064 96.2319934,33 C96.2319934,44.7760936 104.73596,53.3281872 113.572516,53.3281872 Z" id="Oval" fill="#FFFFFF"></path><path d="M306.176,133.12 C306.688,132.096 307.328,132.736 307.968,133.12 C308.992,133.632 309.248,134.656 309.632,135.552 C313.088,143.488 319.104,148.992 325.76,154.112 C328.448,156.288 331.52,158.08 334.464,159.744 C336.512,160.896 338.304,162.304 339.968,164.096 C343.808,168.064 347.776,171.904 351.616,175.872 C352.896,177.152 354.432,178.304 355.968,179.2 C356.864,179.712 358.016,179.968 358.656,178.944 C359.424,177.92 359.296,176.64 358.144,176 C351.872,171.904 347.52,165.888 342.144,160.768 C340.096,158.848 337.92,157.312 335.616,155.776 C334.464,151.808 333.568,147.84 333.696,143.616 C333.696,140.672 334.592,137.856 334.336,134.912 C335.616,135.552 336,136.96 336.64,138.112 C342.784,151.168 351.488,162.176 361.984,172.032 C369.28,178.944 376.96,185.344 384,192.384 C394.112,202.496 403.968,212.992 413.056,224 C423.808,237.056 433.664,250.624 443.264,264.576 C449.152,273.152 454.4,281.984 459.52,290.944 C464.64,299.776 470.144,308.352 475.136,317.312 C477.952,322.304 481.024,327.168 482.432,332.8 C480,333.952 477.568,334.976 475.264,336.128 C466.048,340.608 456.32,341.504 446.336,340.736 C446.08,340.736 445.824,340.48 445.44,340.48 C445.44,339.584 445.056,338.944 444.672,338.176 C441.984,333.184 440.32,327.808 438.016,322.688 C434.944,315.392 431.872,307.968 428.672,300.672 C425.856,294.144 421.888,288.256 417.92,282.496 C413.696,276.096 408.704,270.336 403.968,264.32 C400.512,259.84 397.184,255.36 393.344,251.264 C387.2,244.736 380.928,238.208 374.016,232.448 C370.048,229.12 365.44,227.328 360.32,227.328 C352.128,227.2 344.064,227.712 335.872,228.48 C330.24,228.992 324.48,229.504 318.848,230.4 C310.144,231.808 301.44,233.344 292.736,235.136 C291.584,235.392 290.304,235.776 289.28,234.752 C291.328,231.68 294.528,230.016 297.728,228.48 C303.104,225.792 308.992,225.152 314.88,224.256 C320.768,223.232 326.784,223.232 332.8,222.08 C337.408,221.184 340.096,218.24 340.352,213.504 C340.48,211.584 340.224,209.664 339.712,207.744 C340.864,204.16 340.608,200.832 339.072,197.376 C335.872,190.208 330.496,184.96 323.84,181.12 C320.384,179.072 316.544,178.432 312.448,179.2 C307.584,180.096 303.104,181.76 298.24,182.784 C294.4,183.552 290.688,185.088 286.592,184.832 C290.944,181.76 294.784,178.176 298.88,174.72 C300.8,173.056 303.104,172.288 305.664,172.416 C312.96,172.928 320.128,173.824 327.296,175.104 C330.112,175.616 332.288,177.28 334.336,179.2 C338.56,183.296 342.912,187.392 346.752,191.872 C347.008,192.128 347.136,192.384 347.392,192.512 C348.16,193.28 348.928,193.536 349.824,192.896 C350.72,192.384 350.848,191.36 350.592,190.464 C350.464,189.568 349.824,189.056 349.312,188.416 C345.344,184.576 341.76,180.352 337.664,176.64 C334.848,174.08 331.776,172.032 328.064,170.752 C328.064,169.856 327.808,169.216 327.04,168.704 C323.072,166.4 320.384,162.688 317.696,159.104 C313.344,153.216 309.504,147.2 307.456,140.032 C307.2,137.856 307.2,135.296 306.176,133.12 Z M373.888,186.624 C372.48,186.496 371.584,187.52 371.84,188.8 C371.968,189.696 372.608,190.208 373.12,190.848 C379.392,196.736 384.896,203.392 390.912,209.408 C392.704,211.2 393.856,211.584 394.752,210.56 C395.648,209.664 395.392,208.384 393.728,206.592 C389.504,202.112 385.408,197.632 381.056,193.152 C379.264,191.36 377.472,189.568 375.68,187.776 C375.168,187.264 374.528,186.624 373.888,186.624 Z M444.032,274.944 C444.032,274.688 444.032,274.56 443.904,274.304 C442.624,272.128 441.216,269.952 439.424,268.16 C438.912,267.648 438.144,267.52 437.504,267.904 C436.608,268.416 436.224,269.312 436.608,270.208 C437.632,272.512 439.168,274.56 440.96,276.352 C441.472,276.864 442.24,276.864 443.008,276.48 C443.648,276.352 444.032,275.712 444.032,274.944 Z M406.144,220.544 C406.016,219.648 404.096,217.088 403.2,216.704 C402.048,216.32 401.024,217.088 400.768,218.368 C400.512,220.032 402.304,222.208 403.84,222.464 C405.248,222.72 406.272,221.824 406.144,220.544 Z" id="Shape" fill="#CC704F" fill-rule="nonzero"></path><path d="M142.848,120.192 C141.44,120.064 140.16,120.064 138.752,120.192 C129.408,120.192 120.192,120.064 110.848,120.064 C109.568,120.064 108.416,120.064 107.264,119.68 C105.472,119.04 105.088,118.528 105.728,116.736 C107.264,112.256 108.928,107.904 110.592,103.552 C115.84,89.472 121.216,75.392 126.464,61.44 C128.128,57.088 129.92,52.736 131.456,48.256 C132.096,46.208 133.504,45.568 135.296,45.44 C137.216,45.312 139.264,45.312 141.184,45.44 C148.096,46.208 155.136,45.696 162.048,45.824 C163.456,45.824 164.736,45.824 166.144,45.824 C181.632,46.08 196.992,45.952 212.48,46.336 C228.224,46.72 243.968,46.464 259.84,46.592 C260.736,46.592 261.632,46.592 262.656,46.72 C264.704,46.976 265.344,48 265.344,50.048 C265.344,51.328 264.832,52.48 264.448,53.632 C261.248,62.72 258.176,71.808 254.976,80.896 C250.752,92.928 246.656,105.088 242.56,117.12 C241.408,120.32 241.408,120.32 238.08,120.32 C225.664,120.32 213.248,120.32 200.96,120.32 C181.376,120.192 162.176,120.192 142.848,120.192 Z M166.784,71.04 C164.096,71.04 161.408,71.04 158.848,71.04 C157.056,71.04 155.392,71.552 153.984,72.576 C149.376,75.648 146.688,79.872 145.28,85.12 C144.256,88.96 144.768,92.416 147.584,95.36 C148.096,95.872 148.352,96.512 148.352,97.28 C148.224,102.528 150.784,106.88 152.832,111.488 C153.344,112.512 153.984,113.28 155.008,113.408 C160.512,114.048 162.816,113.536 161.536,107.52 C160.896,104.192 161.152,100.992 161.92,97.792 C162.304,96.256 163.2,96 164.352,96.768 C165.632,97.664 166.784,98.688 167.936,99.712 C171.648,103.04 175.616,106.24 179.712,109.056 C183.552,111.616 185.344,111.232 187.52,107.008 C188.928,104.32 190.208,101.632 191.36,98.944 C192,97.28 193.024,96.512 194.944,96.256 C201.984,94.976 207.616,91.648 210.176,84.48 C212.224,78.848 211.584,72.96 205.696,70.272 C204.544,69.76 204.288,68.992 204.8,67.84 C205.44,66.048 206.08,64.128 206.208,62.208 C206.464,59.648 204.8,58.368 202.368,59.008 C201.856,59.136 201.472,59.392 200.96,59.648 C196.096,61.952 191.104,64.128 186.24,66.432 C179.84,69.248 173.952,72.576 166.784,71.04 Z M219.776,82.048 C222.08,82.048 224.384,81.408 226.688,81.408 C228.352,81.408 229.888,81.152 231.552,80.768 C232.704,80.512 233.728,79.872 233.6,78.464 C233.472,77.312 232.576,76.8 231.424,76.672 C231.168,76.672 230.784,76.672 230.528,76.672 C226.688,77.184 222.848,77.824 219.008,78.08 C218.624,78.08 218.24,78.336 217.856,78.464 C216.832,78.848 216.448,79.616 216.576,80.64 C216.704,81.536 217.344,82.048 218.24,82.176 C218.752,82.048 219.264,82.048 219.776,82.048 Z M230.528,94.336 C230.272,93.568 229.504,92.928 228.48,92.544 C225.024,91.264 221.568,89.984 218.368,88.192 C217.344,87.552 216.448,87.552 215.68,88.448 C214.912,89.344 215.296,90.88 216.32,91.648 C216.448,91.776 216.448,91.776 216.576,91.776 C220.16,93.696 223.872,95.36 227.84,96.512 C229.12,96.896 230.656,95.744 230.528,94.336 Z M216.704,73.344 C216.832,73.344 217.216,73.344 217.472,73.088 C220.928,71.168 224.384,69.248 227.84,67.2 C229.12,66.432 229.12,64.896 228.096,64.128 C227.2,63.36 226.176,63.744 225.28,64.128 C222.208,65.664 219.264,67.456 216.32,69.248 C215.808,69.504 215.296,70.016 215.04,70.528 C214.144,71.936 215.168,73.344 216.704,73.344 Z" id="Shape" fill="#A89EFE" fill-rule="nonzero"></path><path d="M77.568,226.432 C76.672,229.12 75.136,231.552 73.856,234.112 C72.704,236.544 73.344,237.696 76.032,237.824 C79.744,237.952 83.584,237.952 87.296,238.08 C88.448,238.08 89.472,238.208 90.624,238.336 C90.496,240.896 89.472,243.072 88.704,245.376 C87.936,247.808 86.144,248.576 83.712,248.576 C77.824,248.576 71.808,248.576 65.92,248.704 C63.744,248.704 61.696,248.96 59.52,249.088 C58.368,249.088 57.856,249.728 57.6,250.624 C56.96,252.416 56.32,254.08 55.808,255.872 C55.296,257.536 55.552,257.792 57.344,257.792 C60.928,257.792 64.512,257.792 68.096,257.792 C72.448,257.792 76.672,257.792 81.024,257.792 C81.792,257.792 82.688,257.792 83.456,258.048 C84.992,258.432 85.632,259.584 85.248,261.12 C83.584,266.752 81.792,272.256 80,277.76 C79.616,278.912 78.72,279.552 77.568,279.936 C76.288,280.32 75.008,280.448 73.6,280.448 C65.664,280.448 57.6,280.448 49.664,280.576 C46.72,280.576 46.72,280.576 45.696,283.392 C45.184,284.928 44.544,286.464 44.032,288 C43.648,289.152 44.032,289.792 45.312,289.792 C47.616,289.792 50.048,289.792 52.352,289.792 C58.368,289.792 64.384,289.792 70.528,289.792 C74.112,289.792 74.88,290.944 73.856,294.272 C72.32,299.008 70.912,303.616 69.376,308.224 C68.48,311.04 67.328,311.808 64.384,311.808 C62.464,311.808 60.544,311.808 58.496,311.808 C41.216,312.064 23.936,312.576 6.656,312.448 C5.76,312.448 4.864,312.448 3.84,312.448 C1.024,312.32 0.128,311.168 1.024,308.48 C2.944,302.848 5.12,297.344 7.168,291.84 C7.808,290.048 9.088,289.664 10.752,289.664 C19.072,289.664 27.392,289.664 35.584,289.664 C39.808,289.664 39.04,289.408 40.064,286.464 C40.576,285.056 41.088,283.648 41.6,282.112 C41.984,280.832 41.472,280.448 40.32,280.448 C36.736,280.448 33.152,280.32 29.568,280.576 C24.704,281.088 19.968,280.832 15.104,280.832 C12.032,280.832 10.88,279.296 11.904,276.48 C13.824,270.976 15.872,265.472 17.92,260.096 C18.688,258.176 20.096,257.792 22.144,257.792 C30.592,257.792 38.912,257.792 47.36,257.792 C50.688,257.792 50.688,257.792 51.712,254.72 C52.096,253.44 52.608,252.16 52.992,251.008 C53.504,249.344 53.376,249.216 51.584,249.088 C50.816,249.088 50.176,249.088 49.408,249.088 C41.344,249.088 33.28,249.216 25.088,249.216 C24.192,249.216 23.296,249.216 22.272,249.216 C20.352,248.96 19.456,247.68 20.096,246.016 C22.144,240.256 24.32,234.496 26.496,228.736 C27.136,226.816 28.544,226.432 30.336,226.432 C43.904,226.432 57.6,226.432 71.168,226.432 C73.472,226.432 75.52,226.432 77.568,226.432 Z M41.344,302.336 C41.216,301.184 40.576,300.544 39.424,300.544 C38.4,300.416 37.376,301.44 37.504,302.464 C37.632,303.616 38.4,304.256 39.424,304.384 C40.448,304.384 41.344,303.36 41.344,302.336 Z M63.232,237.184 C63.104,236.16 62.08,235.392 61.056,235.52 C60.032,235.776 59.392,236.416 59.52,237.44 C59.648,238.464 60.288,239.104 61.312,239.104 C62.336,239.232 63.36,238.208 63.232,237.184 Z M47.744,302.08 C47.616,301.184 46.976,300.544 45.952,300.544 C44.928,300.416 43.904,301.44 44.032,302.464 C44.16,303.488 44.8,304.128 45.824,304.128 C46.848,304.128 47.744,303.232 47.744,302.08 Z M35.968,302.208 C35.968,301.184 35.072,300.16 34.048,300.288 C33.024,300.416 32.384,301.056 32.256,302.08 C32.128,303.104 33.152,304 34.176,304 C35.2,303.872 35.84,303.36 35.968,302.208 Z M55.552,235.136 C54.528,235.264 53.888,235.776 53.76,236.8 C53.632,237.824 54.528,238.72 55.552,238.72 C56.576,238.72 57.472,237.824 57.344,236.8 C57.216,235.776 56.576,235.264 55.552,235.136 Z M51.2,236.8 C51.072,235.648 50.176,234.88 49.024,235.008 C48,235.136 47.488,235.904 47.488,236.928 C47.616,237.952 48.512,238.848 49.536,238.592 C50.688,238.464 51.2,237.696 51.2,236.8 Z M43.392,272.128 C44.416,272 45.056,271.616 45.184,270.464 C45.184,269.44 44.672,268.8 43.52,268.672 C42.496,268.544 41.856,269.312 41.728,270.336 C41.728,271.36 42.24,272 43.392,272.128 Z M51.2,270.208 C51.072,269.184 50.56,268.544 49.536,268.416 C48.512,268.288 47.488,269.312 47.744,270.336 C47.872,271.36 48.512,272 49.536,272 C50.56,271.872 51.072,271.232 51.2,270.208 Z M55.68,268.928 C54.656,269.184 54.016,269.696 54.144,270.848 C54.272,271.872 54.912,272.512 55.936,272.384 C56.96,272.256 57.6,271.616 57.472,270.592 C57.472,269.568 56.704,269.056 55.68,268.928 Z" id="Shape" fill="#85E5B9" fill-rule="nonzero"></path><path d="M414.976,189.696 C415.36,188.16 415.616,186.112 416.128,184.192 C416.768,182.016 416.384,180.48 414.592,178.816 C411.264,175.744 408.32,172.416 404.992,169.344 C403.072,167.552 402.944,165.888 403.712,163.584 C411.776,141.696 419.712,119.808 427.648,97.92 C428.672,95.232 428.8,95.104 431.744,95.104 C461.312,94.848 490.88,94.72 520.448,94.464 C522.624,94.464 524.16,95.232 525.44,96.768 C528.256,100.224 530.944,103.68 533.888,106.88 C535.808,108.928 536.064,110.848 535.04,113.536 C528,131.456 521.088,149.376 514.048,167.296 C512.896,170.112 511.872,173.056 510.72,175.872 C509.44,179.072 509.184,179.2 505.728,179.328 C488.576,179.456 471.296,179.584 454.144,179.712 C451.84,179.712 450.432,180.352 449.024,182.144 C443.52,189.184 437.76,196.224 432.128,203.264 C431.616,203.776 431.232,204.416 430.72,204.928 C429.44,206.336 428.032,206.464 426.752,205.056 C423.04,201.344 419.456,197.504 415.872,193.792 C415.104,192.64 414.848,191.36 414.976,189.696 Z M520.32,98.688 C519.168,98.688 518.656,98.56 518.016,98.56 C490.112,98.688 462.208,98.816 434.176,99.072 C431.488,99.072 431.488,99.072 430.464,101.76 C423.296,121.6 416,141.312 408.832,161.152 C408.576,161.92 407.936,162.816 408.32,163.712 C408.96,163.968 409.472,163.968 410.112,163.84 C413.44,163.584 416.896,163.328 420.224,163.072 C423.424,162.816 424.192,163.84 423.68,167.04 C423.168,169.856 422.528,172.672 422.016,175.488 C421.504,178.048 420.736,180.608 420.608,183.808 C422.016,182.272 423.04,181.12 424.064,180.096 C428.672,174.976 433.536,170.112 437.888,164.864 C439.424,163.072 440.832,162.432 443.008,162.432 C459.776,162.688 476.544,162.944 493.312,163.2 C497.28,163.2 496.512,163.712 497.792,160.128 C504.576,141.696 511.36,123.264 518.144,104.832 C518.784,102.912 519.424,100.992 520.32,98.688 Z M507.648,172.928 C508.288,171.392 508.672,170.496 509.056,169.6 C515.968,151.68 522.88,133.76 530.048,115.84 C531.584,112.128 531.84,109.184 528.512,106.496 C526.72,105.088 525.696,102.912 523.904,101.376 C523.008,102.144 523.008,103.04 522.752,103.68 C517.248,118.528 511.744,133.376 506.24,148.352 C504.576,152.832 502.912,157.44 501.248,161.92 C500.864,162.944 500.48,163.84 501.248,164.864 C503.168,167.296 505.216,169.856 507.648,172.928 Z M503.68,174.848 C502.4,172.544 500.736,170.752 499.456,168.704 C498.56,167.424 497.408,166.912 495.872,166.912 C479.616,166.784 463.36,166.528 447.104,166.272 C446.592,166.272 445.824,166.016 445.312,166.912 C446.72,168.832 448.256,170.88 449.664,173.056 C450.816,174.976 452.224,175.488 454.4,175.488 C469.888,175.36 485.248,175.232 500.736,175.232 C501.504,175.232 502.4,175.488 503.68,174.848 Z M428.544,200.832 C430.208,199.424 431.36,197.76 432.512,196.224 C437.12,190.592 441.6,184.96 446.208,179.2 C447.744,177.28 447.744,177.28 446.336,175.36 C444.8,173.312 443.392,171.136 441.856,169.088 C440.576,167.424 440.448,167.424 439.168,168.96 C435.2,173.312 431.232,177.792 427.136,182.144 C424.832,184.704 422.4,187.264 420.096,189.824 C419.584,190.336 418.944,190.848 419.712,191.616 C422.784,194.816 425.6,197.76 428.544,200.832 Z M409.6,168.064 C412.544,170.88 414.848,173.568 417.792,176.128 C418.304,173.312 418.816,171.008 419.328,168.704 C419.456,167.808 419.456,166.912 418.304,167.04 C415.616,167.424 412.8,167.296 409.6,168.064 Z" id="Shape" fill="#202B45" fill-rule="nonzero"></path><path d="M289.664,234.496 C290.688,235.52 291.968,235.136 293.12,234.88 C301.824,233.088 310.528,231.552 319.232,230.144 C324.864,229.248 330.496,228.864 336.256,228.224 C344.448,227.456 352.512,226.944 360.704,227.072 C365.952,227.2 370.432,228.864 374.4,232.192 C381.312,237.952 387.584,244.48 393.728,251.008 C397.568,255.104 400.896,259.584 404.352,264.064 C409.088,270.08 413.952,275.968 418.304,282.24 C422.272,288.128 426.112,294.016 429.056,300.416 C432.256,307.712 435.328,315.008 438.4,322.432 C440.576,327.552 442.368,332.928 445.056,337.92 C445.44,338.688 445.824,339.328 445.824,340.224 C438.144,339.712 430.848,337.664 424.192,333.696 C424.96,329.728 423.68,326.016 422.912,322.176 C420.736,312.32 417.408,302.72 413.056,293.504 C407.552,281.728 400.896,270.592 392.96,260.224 C387.968,253.696 382.208,247.68 376.192,241.92 C374.272,240.128 371.84,239.616 369.408,239.36 C361.088,238.592 352.768,237.824 344.448,237.312 C336.64,236.8 328.96,237.824 321.28,238.976 C317.44,239.488 313.6,240 309.76,240.256 C304.512,240.512 299.392,241.664 294.272,241.664 C293.248,241.664 292.224,241.664 291.2,241.664 C288.256,241.536 287.488,240.512 288,237.824 C288.128,236.672 288.64,235.392 289.664,234.496 Z" id="Path" fill="#B15636" fill-rule="nonzero"></path><path d="M76.416,352.512 C76.672,353.152 76.928,353.408 77.056,353.792 C79.232,358.656 76.416,363.52 71.04,364.032 C67.584,364.416 65.408,362.24 65.664,358.656 C65.92,356.352 67.2,354.432 68.736,352.512 C67.2,351.36 65.536,351.36 64,351.232 C58.24,350.592 52.864,352 47.872,355.072 C45.952,356.224 44.288,357.76 43.776,360.192 C43.52,361.216 42.752,361.728 41.728,361.6 C40.576,361.472 40.064,360.576 39.936,359.424 C39.936,358.4 40.32,357.376 40.832,356.608 C42.112,354.56 43.776,352.896 45.824,351.744 C53.76,347.008 62.08,345.728 70.784,348.928 C72.32,349.44 73.344,349.44 74.752,348.8 C79.36,346.752 84.224,345.728 89.344,345.472 C96,345.216 102.656,345.472 109.312,346.368 C117.632,347.52 126.08,347.648 134.4,346.496 C134.528,346.496 134.656,346.496 134.656,346.368 C135.936,346.112 136.96,346.368 137.344,347.776 C137.728,348.928 136.832,350.08 135.296,350.336 C133.376,350.72 131.456,350.848 129.536,350.976 C122.24,351.488 115.072,351.104 107.776,350.208 C100.352,349.312 92.928,348.8 85.376,349.824 C82.56,350.336 79.616,351.104 76.416,352.512 Z M73.984,357.12 C73.984,356.224 73.728,355.328 72.96,355.072 C72.064,354.56 71.552,355.584 71.04,356.224 C70.272,357.12 69.76,358.016 69.632,359.168 C69.632,359.68 69.76,360.192 70.4,360.32 C71.808,360.448 73.984,358.528 73.984,357.12 Z" id="Shape" fill="#242940" fill-rule="nonzero"></path><path d="M410.496,83.84 C410.368,84.608 410.112,85.376 410.112,86.016 C409.728,89.6 411.264,91.52 414.848,92.032 C415.488,92.16 416,92.288 416.64,92.416 C417.536,92.672 417.92,93.312 417.92,94.336 C417.92,95.232 417.408,95.872 416.512,96.128 C415.872,96.384 415.104,96.512 414.464,96.512 C412.032,96.512 410.496,97.92 409.472,99.968 C408.96,101.12 408.448,102.144 407.936,103.296 C407.552,104.064 407.04,104.704 406.016,104.576 C404.992,104.448 404.352,103.808 404.096,102.784 C403.84,101.76 403.712,100.608 403.456,99.456 C402.816,97.28 401.536,95.616 399.36,94.976 C398.976,94.848 398.592,94.72 398.208,94.592 C397.44,94.208 396.8,93.696 396.928,92.672 C397.184,91.776 397.568,90.88 398.592,90.752 C398.976,90.752 399.36,90.752 399.872,90.624 C403.456,90.368 405.248,88.576 405.888,84.864 C406.016,84.224 406.144,83.456 406.272,82.816 C406.656,81.536 407.68,81.024 408.96,81.408 C410.24,81.792 410.368,82.944 410.496,83.84 Z" id="Path" fill="#FDDB6D" fill-rule="nonzero"></path><path d="M75.264,35.072 C76.672,35.072 77.184,35.968 77.312,37.248 C77.44,39.936 78.08,42.496 78.848,45.056 C80.768,51.84 84.224,57.856 88.704,63.232 C88.96,63.488 89.216,63.872 89.472,64.128 C89.984,64.896 89.984,65.664 89.472,66.432 C88.832,67.2 87.936,67.328 87.04,66.944 C86.272,66.56 85.76,65.92 85.248,65.28 C79.232,57.984 75.392,49.664 73.6,40.32 C73.344,39.296 73.472,38.016 73.472,36.992 C73.6,35.968 74.24,35.2 75.264,35.072 Z" id="Path" fill="#272E45" fill-rule="nonzero"></path><path d="M113.408,22.4 C112.64,22.528 112,22.528 111.36,22.016 C111.104,21.248 110.464,21.376 109.824,21.248 C107.136,21.12 104.704,20.224 102.272,19.328 C104.192,16.512 107.136,15.232 110.336,14.336 C116.608,12.672 124.16,14.848 127.616,20.352 C126.72,20.864 125.952,21.376 125.056,21.888 C124.672,21.376 124.032,21.12 123.392,21.376 C120.96,22.144 118.4,21.76 115.968,21.888 C115.072,21.888 114.176,21.632 113.408,22.4 Z" id="Path" fill="#58C2F9" fill-rule="nonzero"></path><path d="M102.272,19.328 C104.704,20.224 107.136,21.248 109.824,21.248 C110.464,21.248 111.104,21.12 111.36,22.016 C110.336,22.272 109.184,22.784 110.848,23.552 C112,24.064 112.256,24.832 112.512,25.856 C112.768,27.136 112.896,28.544 113.28,29.696 C113.792,31.616 113.664,33.536 112.64,35.328 C111.488,36.992 110.848,38.912 109.952,40.704 C109.44,41.728 109.312,43.136 107.904,43.392 C107.008,38.016 106.112,32.64 105.216,27.136 C105.088,25.984 104.832,24.96 104.704,23.808 C104.576,22.144 106.88,23.552 107.008,22.016 C105.728,20.864 104.064,21.376 102.528,21.12 C102.016,20.992 101.376,21.12 101.376,20.48 C101.248,19.84 101.76,19.584 102.272,19.328 Z" id="Path" fill="#2A7C9E" fill-rule="nonzero"></path><path d="M113.408,22.4 C114.176,21.76 115.072,22.016 115.968,21.888 C118.4,21.76 120.96,22.144 123.392,21.376 C124.032,21.12 124.544,21.376 125.056,21.888 C124.032,23.552 124.288,25.216 124.928,26.88 C125.312,27.904 125.696,28.928 126.208,29.952 C126.08,30.208 126.208,30.336 126.336,30.464 C126.464,31.488 126.464,32.512 126.464,33.536 C126.464,33.792 126.464,33.92 126.464,34.176 C125.056,38.016 123.648,41.728 121.6,45.952 C120.96,42.624 120.576,39.936 120.064,37.248 C119.552,34.304 119.04,31.232 118.528,28.16 C118.016,25.216 118.016,25.216 120.448,23.936 C119.552,22.656 118.272,23.168 117.12,22.912 C115.84,22.656 114.56,22.528 113.408,22.4 Z" id="Path" fill="#2A7C9E" fill-rule="nonzero"></path><path d="M535.296,155.136 C534.144,155.008 533.376,154.368 533.248,153.344 C532.864,150.528 531.712,148.608 528.768,147.84 C527.744,147.584 527.36,146.688 527.488,145.664 C527.616,144.64 528.384,143.744 529.28,143.872 C532.608,144.256 533.376,142.208 533.888,139.52 C534.144,138.368 535.04,137.6 536.32,137.856 C537.6,138.112 537.856,139.136 537.728,140.16 C537.472,142.464 537.984,144.128 540.672,144.512 C541.568,144.64 542.336,145.408 542.464,146.432 C542.592,147.456 542.08,148.224 541.056,148.608 C538.88,149.376 537.984,151.04 537.344,153.088 C537.216,153.984 536.832,155.008 535.296,155.136 Z" id="Path" fill="#FDDB6D" fill-rule="nonzero"></path><path d="M104.192,49.664 C96.256,44.928 93.696,31.744 99.072,23.936 C100.736,32.512 102.4,40.832 104.192,49.664 Z" id="Path" fill="#2A7C9E" fill-rule="nonzero"></path><path d="M108.416,47.744 C108.544,47.616 108.544,47.36 108.672,47.232 C109.056,46.848 109.184,46.464 109.184,45.952 C109.184,45.824 109.312,45.568 109.312,45.44 C109.696,45.312 109.824,45.056 109.824,44.8 C109.952,44.544 110.08,44.288 110.08,44.16 C111.104,43.264 111.36,41.856 112,40.704 C112.896,39.296 113.024,37.376 114.432,36.224 C114.56,36.608 114.688,36.992 114.688,37.376 C114.688,37.504 114.56,37.632 114.56,37.632 C114.688,37.76 114.688,38.016 114.816,38.144 C115.584,42.24 116.352,46.336 117.248,50.432 C117.76,52.864 117.504,52.992 115.072,53.248 C112.896,53.504 110.848,53.12 108.8,52.48 C106.752,51.968 106.752,51.84 107.52,49.664 C107.648,49.28 107.776,48.896 107.904,48.512 C108.288,48.256 108.416,48 108.416,47.744 Z" id="Path" fill="#2A7C9E" fill-rule="nonzero"></path><path d="M484.992,294.912 C484.992,295.936 484.608,296.576 483.84,296.96 C483.072,297.344 482.432,297.088 481.92,296.576 C481.28,296.064 481.024,295.296 480.64,294.528 C479.104,291.456 477.568,288.384 475.904,285.312 C474.752,283.136 473.472,281.088 471.296,279.68 C470.272,279.04 469.76,278.016 470.4,276.864 C471.168,275.712 472.32,275.84 473.344,276.48 C474.624,277.12 475.648,278.144 476.544,279.296 C480,283.904 482.176,289.152 484.736,294.272 C484.864,294.4 484.992,294.656 484.992,294.912 Z" id="Path" fill="#272E45" fill-rule="nonzero"></path><path d="M495.104,75.392 C493.952,75.392 493.056,74.368 493.312,73.088 C493.44,72.064 493.824,71.168 494.336,70.144 C496.896,65.024 499.968,60.288 502.912,55.296 C503.168,54.912 503.424,54.656 503.68,54.4 C504.448,53.76 505.344,53.632 506.112,54.272 C506.88,54.784 507.136,55.552 506.752,56.448 C506.496,57.088 506.112,57.728 505.728,58.368 C502.912,63.488 499.328,68.352 497.152,73.856 C496.768,74.624 496.256,75.392 495.104,75.392 Z" id="Path" fill="#272E45" fill-rule="nonzero"></path><path d="M504.064,80.256 C502.656,80.256 501.76,79.104 502.272,77.696 C502.656,76.8 503.168,75.904 503.808,75.136 C507.264,71.04 510.72,67.072 514.048,62.976 C514.176,62.848 514.304,62.72 514.432,62.592 C515.328,61.824 516.352,61.44 517.504,62.208 C518.528,62.976 518.4,64.128 517.376,65.408 C515.2,67.968 513.024,70.528 510.72,73.088 C509.056,74.88 507.392,76.672 505.984,78.72 C505.6,79.616 505.088,80.256 504.064,80.256 Z" id="Path" fill="#272E45" fill-rule="nonzero"></path><path d="M131.072,27.264 C134.4,34.56 130.176,47.616 121.344,51.072 C122.88,46.592 124.8,42.368 126.72,38.272 C127.744,35.968 129.408,34.048 130.048,31.616 C130.304,30.08 130.688,28.8 131.072,27.264 Z" id="Path" fill="#2A7C9E" fill-rule="nonzero"></path><path d="M513.024,83.968 C511.36,84.096 510.336,82.56 511.104,81.28 C511.488,80.64 512,80.128 512.512,79.744 C516.096,76.928 519.68,74.112 523.392,71.296 C523.776,71.04 524.032,70.784 524.416,70.656 C525.312,70.272 526.208,70.272 526.848,71.168 C527.488,72.064 527.232,72.832 526.72,73.728 C526.592,73.984 526.336,74.24 526.08,74.368 C522.112,77.44 518.144,80.512 514.304,83.584 C513.792,83.712 513.408,83.968 513.024,83.968 Z" id="Path" fill="#272E45" fill-rule="nonzero"></path><path d="M484.096,274.816 C485.12,274.816 485.76,275.456 486.4,276.096 C489.216,279.424 490.88,283.392 492.672,287.232 C493.184,288.256 492.8,289.28 491.776,289.792 C490.624,290.432 489.856,289.792 489.216,288.768 C488.832,288.128 488.576,287.488 488.192,286.848 C486.528,283.776 485.376,280.576 482.944,277.888 C482.304,277.248 482.048,276.48 482.56,275.584 C482.688,275.2 483.328,274.944 484.096,274.816 Z" id="Path" fill="#272E45" fill-rule="nonzero"></path><path d="M76.032,58.368 C76.8,58.496 77.44,58.624 77.824,59.392 C78.848,61.312 80,63.104 81.536,64.512 C82.304,65.28 82.304,66.176 81.664,66.944 C81.024,67.712 80.128,67.84 79.232,67.328 C76.672,65.792 75.264,63.36 74.24,60.544 C73.856,59.648 74.88,58.368 76.032,58.368 Z" id="Path" fill="#272E45" fill-rule="nonzero"></path><path d="M114.432,36.096 C113.024,37.248 112.896,39.168 112,40.576 C111.36,41.728 111.104,43.136 110.08,44.032 C109.44,43.776 108.416,44.416 107.904,43.392 C109.44,43.136 109.44,41.728 109.952,40.704 C110.848,38.912 111.488,36.992 112.64,35.328 C113.28,35.456 114.048,35.2 114.432,36.096 Z" id="Path" fill="#A7DEFB" fill-rule="nonzero"></path><path d="M109.056,45.952 C109.184,46.464 108.928,46.848 108.544,47.232 C108.416,46.592 108.544,46.208 109.056,45.952 Z" id="Path" fill="#A7DEFB" fill-rule="nonzero"></path><path d="M108.416,47.744 C108.416,48.128 108.416,48.384 108.032,48.512 C107.904,48.128 108.032,47.872 108.416,47.744 Z" id="Path" fill="#A7DEFB" fill-rule="nonzero"></path><path d="M109.696,44.672 C109.696,45.056 109.568,45.312 109.184,45.312 C109.184,45.056 109.312,44.8 109.696,44.672 Z" id="Path" fill="#A7DEFB" fill-rule="nonzero"></path><path d="M114.944,38.016 C114.816,37.888 114.688,37.632 114.688,37.504 C114.688,37.376 114.688,37.376 114.816,37.248 C114.944,37.376 115.072,37.632 114.944,38.016 Z" id="Path" fill="#A7DEFB" fill-rule="nonzero"></path><path d="M126.336,34.176 C126.336,33.92 126.336,33.792 126.336,33.536 C126.336,33.664 126.464,33.792 126.464,34.048 C126.592,34.048 126.464,34.048 126.336,34.176 Z" id="Path" fill="#A7DEFB" fill-rule="nonzero"></path><path d="M126.208,30.464 C126.08,30.336 126.08,30.08 126.08,29.952 C126.336,29.952 126.464,30.08 126.336,30.336 C126.464,30.336 126.336,30.336 126.208,30.464 Z" id="Path" fill="#A7DEFB" fill-rule="nonzero"></path><path d="M142.848,120.192 C162.048,120.192 181.376,120.192 200.576,120.192 C212.992,120.192 225.408,120.192 237.696,120.192 C241.152,120.192 241.152,120.192 242.176,116.992 C246.4,104.96 250.496,92.8 254.592,80.768 C257.792,71.68 260.864,62.592 264.064,53.504 C264.448,52.352 264.96,51.2 264.96,49.92 C264.96,47.744 264.32,46.848 262.272,46.592 C261.376,46.464 260.48,46.592 259.456,46.464 C243.712,46.464 227.968,46.592 212.096,46.208 C196.608,45.824 181.248,45.952 165.76,45.696 C168.192,37.632 170.496,29.44 173.44,21.376 C176.768,12.416 183.424,7.168 192.256,4.224 C193.152,3.968 194.304,3.968 195.328,3.968 C258.56,3.968 321.92,4.096 385.152,4.096 C387.328,4.096 389.376,4.224 391.552,4.48 C400.512,5.248 406.272,15.104 405.632,21.632 C405.504,22.528 405.504,23.424 405.12,24.32 C400.768,35.712 397.568,47.488 393.984,59.008 C383.232,93.312 372.608,127.744 361.856,162.048 C361.6,162.816 361.6,163.84 360.576,164.608 C356.736,161.024 353.152,157.184 350.08,152.704 C346.496,147.584 343.04,142.336 340.48,136.576 C339.712,134.912 338.944,133.248 337.664,131.84 C335.36,129.28 332.288,129.152 329.856,131.584 C328.448,132.992 327.552,134.656 327.04,136.576 C325.76,140.288 325.504,144.128 326.016,147.968 C324.992,148.48 324.608,147.712 324.096,147.2 C319.36,143.232 315.392,138.624 312.832,132.864 C312.32,131.584 311.68,130.56 310.656,129.536 C308.48,127.36 306.176,127.104 303.872,129.152 C301.184,131.456 300.16,134.528 299.904,137.856 C299.392,142.592 300.544,146.944 302.72,151.168 C305.536,156.544 308.608,161.664 312.704,166.272 C313.216,166.784 313.984,167.296 313.984,168.576 C312.32,168.448 310.784,168.32 309.12,168.064 C303.872,167.168 299.392,168.448 295.552,172.032 C291.712,175.488 288,178.944 283.52,181.504 C281.728,182.528 280.832,184.32 280.192,186.112 C244.992,186.112 209.792,186.24 174.592,186.24 C171.52,186.24 169.728,187.264 168.32,190.08 C164.736,197.248 160.896,204.16 157.312,211.328 C153.344,218.88 149.504,226.432 145.664,233.984 C143.744,237.824 144.384,238.72 148.608,238.592 C164.736,238.336 180.864,238.592 197.12,238.08 C212.608,237.44 228.224,237.952 243.712,237.44 C257.024,237.056 270.336,237.184 283.648,237.056 C283.648,237.824 283.52,238.72 283.52,239.488 C283.776,242.816 285.568,244.736 288.768,245.248 C292.352,245.888 295.936,245.504 299.52,245.12 C306.944,244.352 314.368,243.584 321.792,242.688 C326.016,242.176 330.368,241.664 334.592,241.152 C335.232,241.024 336,241.024 336.512,241.024 C337.152,241.92 336.64,242.56 336.512,243.2 C327.936,270.72 319.36,298.24 310.784,325.76 C310.016,328.32 310.016,328.32 307.2,328.32 C295.168,328.448 283.264,328.448 271.232,328.704 C268.544,328.704 266.752,327.808 265.6,325.504 C266.24,324.352 267.392,323.584 268.288,322.688 C270.976,320.128 270.848,319.36 268.032,317.184 C263.808,314.112 259.456,311.168 255.232,308.096 C254.208,307.328 252.928,306.688 252.16,305.664 C256.128,303.104 259.456,300.032 261.376,295.68 C264.448,288.384 260.096,281.6 252.16,281.472 C226.176,281.472 200.192,281.472 174.208,281.216 C168.448,281.216 163.584,282.752 158.848,285.568 C153.472,288.768 150.144,293.248 149.376,299.52 C148.736,304.64 151.936,308.352 157.184,308.48 C172.672,308.736 188.032,308.48 203.52,308.864 C215.168,309.248 226.816,308.992 238.464,308.992 C240.128,315.392 240.896,321.92 242.304,328.704 C187.52,328.96 132.992,329.344 78.72,329.6 C78.08,328.448 78.592,327.552 78.848,326.784 C87.68,297.984 96.64,269.184 105.6,240.384 C106.368,237.952 106.368,237.952 108.928,237.952 C112.768,238.08 116.736,238.08 120.576,238.336 C123.264,238.464 124.8,237.312 125.952,235.136 C133.248,220.8 140.544,206.592 147.84,192.256 C149.376,189.184 148.48,187.52 145.024,187.52 C138.24,187.392 131.456,187.392 124.8,187.392 C124.032,187.392 123.392,187.392 122.624,187.392 C122.112,185.856 122.88,184.704 123.264,183.552 C129.536,162.944 135.936,142.336 142.336,121.728 C142.592,121.344 142.72,120.832 142.848,120.192 Z M286.592,21.76 C286.592,21.76 286.592,21.76 286.592,21.76 C262.272,21.504 237.824,21.248 213.504,20.992 C203.648,20.864 193.792,20.736 184.064,20.608 C181.76,20.608 180.864,21.248 180.864,22.528 C180.864,23.808 181.76,24.448 184.064,24.576 C190.208,24.704 196.352,24.832 202.496,24.832 C234.88,25.216 267.392,25.6 299.776,25.856 C329.088,26.112 358.528,26.496 387.84,26.752 C388.736,26.752 389.632,26.752 390.528,26.624 C391.424,26.496 391.936,25.728 391.936,24.832 C391.936,23.936 391.424,23.168 390.528,23.04 C389.632,22.912 388.736,22.784 387.84,22.784 C354.176,22.528 320.384,22.144 286.592,21.76 Z M321.152,79.488 C320.512,77.056 320.128,74.368 317.44,73.088 C316.928,72.832 317.056,72.192 317.312,71.68 C317.568,71.04 317.824,70.272 317.952,69.632 C318.976,65.024 316.8,62.08 312.064,61.696 C309.888,61.568 307.84,61.696 305.664,62.208 C296.576,64.64 289.28,69.888 283.264,77.056 C282.88,77.568 282.496,78.08 282.368,78.592 C281.984,79.488 282.24,80.384 283.136,81.024 C284.032,81.536 284.8,81.28 285.312,80.64 C285.952,80.128 286.336,79.36 286.976,78.848 C292.608,72.576 299.264,67.712 307.584,65.792 C309.248,65.408 310.784,65.28 312.448,65.664 C313.216,65.92 313.984,66.176 314.112,67.2 C314.496,69.248 312.704,72.32 310.656,72.96 C308.352,73.6 306.176,74.496 304.256,75.776 C302.72,76.8 301.44,78.08 300.672,79.872 C300.16,81.28 299.904,82.688 301.056,83.84 C302.08,84.992 303.488,84.864 304.768,84.352 C307.328,83.456 309.504,81.92 311.424,80 C312.32,79.104 313.088,78.208 313.856,77.312 C315.008,76.16 316.032,76.416 316.544,77.952 C316.672,78.336 316.672,78.72 316.8,79.104 C317.696,83.2 319.488,84.224 323.456,82.816 C324.864,82.304 326.272,81.664 327.68,81.024 C328.96,80.512 330.112,80 331.392,79.616 C332.288,79.232 333.184,79.36 333.824,80.384 C335.872,83.84 338.944,83.712 342.272,83.072 C345.088,82.56 347.776,81.408 350.336,80 C351.744,79.232 353.152,78.848 354.688,78.72 C356.48,78.592 358.144,78.336 359.808,78.08 C360.832,77.952 361.728,77.312 361.6,76.032 C361.472,74.752 360.576,74.112 359.552,74.24 C355.968,74.624 352.128,74.496 348.8,76.288 C346.368,77.568 343.808,78.592 341.12,79.232 C339.456,79.616 337.92,79.616 336.896,77.824 C335.616,75.52 333.44,75.136 331.008,75.776 C328.96,76.288 327.168,77.056 325.248,77.952 C323.968,78.592 322.688,79.232 321.152,79.488 Z M192.256,142.208 C192.256,142.08 192.256,141.952 192.256,141.824 C202.112,141.824 211.968,141.824 221.696,141.824 C222.592,141.824 223.488,141.824 224.384,141.696 C225.28,141.568 225.792,140.8 225.792,139.904 C225.792,139.008 225.28,138.368 224.384,138.112 C223.744,137.984 222.976,137.984 222.208,137.984 C202.112,137.984 182.144,138.112 162.048,138.112 C161.28,138.112 160.64,138.112 159.872,138.24 C158.976,138.496 158.464,139.008 158.336,140.032 C158.336,141.056 158.848,141.824 159.872,142.08 C160.768,142.208 161.664,142.208 162.56,142.208 C172.672,142.208 182.528,142.208 192.256,142.208 Z M249.472,161.408 C249.472,161.664 249.472,161.792 249.472,162.048 C242.944,162.048 236.416,162.048 229.888,162.048 C229.12,162.048 228.48,162.048 227.712,162.048 C226.56,162.176 225.536,162.56 225.28,163.968 C225.152,165.12 226.176,165.888 227.712,166.144 C227.968,166.144 228.352,166.144 228.608,166.144 C242.304,165.888 256,165.76 269.696,165.504 C270.336,165.504 271.104,165.376 271.744,165.12 C272.512,164.864 272.896,164.352 273.024,163.584 C273.024,162.688 272.512,162.048 271.744,161.664 C270.848,161.28 269.952,161.408 269.056,161.408 C262.528,161.408 256,161.408 249.472,161.408 Z M259.968,142.208 C259.968,141.952 259.968,141.696 259.968,141.568 C266.24,141.568 272.384,141.568 278.656,141.568 C279.552,141.568 280.448,141.44 281.344,141.312 C282.368,141.056 283.008,140.416 282.88,139.392 C282.752,138.24 282.112,137.728 281.088,137.6 C280.448,137.472 279.808,137.472 279.296,137.472 C266.368,137.728 253.312,137.856 240.384,138.112 C237.952,138.112 236.8,138.88 236.8,140.16 C236.8,141.568 237.952,142.208 240.64,142.208 C247.168,142.208 253.568,142.208 259.968,142.208 Z M297.6,102.016 C297.6,101.888 297.6,101.76 297.6,101.632 C304.128,101.632 310.656,101.632 317.184,101.632 C318.976,101.632 320.128,100.864 320.128,99.584 C320.128,98.432 319.104,97.536 317.312,97.536 C317.056,97.536 316.928,97.536 316.672,97.536 C304.128,97.664 291.584,97.92 278.912,98.048 C278.144,98.048 277.504,98.048 276.864,98.304 C276.096,98.56 275.456,99.2 275.584,100.096 C275.712,100.992 276.224,101.632 277.12,101.76 C278.016,101.888 278.912,101.888 279.808,101.888 C285.824,102.016 291.712,102.016 297.6,102.016 Z M169.6,165.632 C169.6,165.632 169.6,165.632 169.6,165.632 C175.616,165.632 181.632,165.76 187.648,165.632 C189.824,165.632 190.848,164.992 190.848,163.584 C190.848,162.304 189.952,161.664 187.648,161.664 C175.616,161.536 163.584,161.536 151.552,161.536 C149.12,161.536 147.968,162.176 148.096,163.584 C148.096,164.864 149.248,165.504 151.68,165.504 C157.44,165.632 163.584,165.632 169.6,165.632 Z M375.168,11.136 C375.168,11.264 375.168,11.392 375.168,11.392 C372.608,11.392 370.048,11.392 367.488,11.392 C366.08,11.392 364.672,11.392 363.136,11.392 C361.856,11.392 360.832,11.904 360.832,13.312 C360.832,14.72 361.856,15.104 363.136,15.232 C363.52,15.232 363.904,15.232 364.416,15.232 C371.584,15.104 378.752,14.976 385.92,14.848 C388.096,14.848 389.12,14.08 389.12,12.8 C389.12,11.52 387.968,10.88 385.92,10.88 C385.664,10.88 385.28,10.88 385.024,10.88 C381.696,11.136 378.496,11.136 375.168,11.136 Z M212.992,18.432 C214.656,18.432 216.576,17.792 217.6,15.744 C218.496,13.824 217.984,11.392 216.448,9.856 C214.912,8.32 212.864,8.064 210.56,9.088 C208.256,10.24 206.72,12.288 206.976,14.336 C207.104,15.488 207.616,16.512 208.64,17.152 C209.792,17.92 211.072,18.432 212.992,18.432 Z M228.992,9.216 C226.176,9.216 223.872,11.392 223.872,13.824 C224,16.256 226.432,18.688 228.864,18.688 C231.68,18.688 234.496,16 234.368,13.184 C234.368,10.752 232.32,9.088 228.992,9.216 Z M200.576,13.056 C200.576,10.752 197.888,7.68 195.968,7.68 C193.28,7.68 190.592,10.496 190.592,13.44 C190.592,16 192.512,17.92 195.328,17.92 C198.4,17.92 200.576,15.872 200.576,13.056 Z M207.872,165.12 C207.872,165.12 207.872,164.992 207.872,164.992 C209.92,164.864 211.968,164.736 214.016,164.608 C215.168,164.48 216.064,164.096 216.064,162.816 C216.064,161.408 215.168,160.768 213.888,160.768 C210.176,160.768 206.464,160.896 202.88,161.28 C201.6,161.408 200.704,162.048 200.832,163.456 C200.96,164.608 201.856,165.12 203.008,165.12 C204.672,165.12 206.208,165.12 207.872,165.12 Z M335.488,97.536 C335.488,97.536 335.488,97.664 335.488,97.536 C334.208,97.664 333.056,97.536 331.776,97.664 C330.624,97.792 329.472,98.176 329.472,99.584 C329.344,100.992 330.496,101.632 331.648,101.632 C334.336,101.632 336.896,101.632 339.584,101.504 C340.736,101.504 341.888,100.864 341.76,99.456 C341.632,98.048 340.608,97.536 339.456,97.536 C338.176,97.536 336.768,97.536 335.488,97.536 Z" id="Shape" fill="#FDFDFE" fill-rule="nonzero"></path><path d="M283.648,237.312 C270.336,237.44 257.024,237.184 243.712,237.696 C228.224,238.208 212.608,237.696 197.12,238.336 C180.992,238.976 164.864,238.592 148.608,238.848 C144.384,238.976 143.744,237.952 145.664,234.24 C149.504,226.688 153.344,219.136 157.312,211.584 C161.024,204.544 164.864,197.504 168.32,190.336 C169.728,187.52 171.52,186.496 174.592,186.496 C209.792,186.496 244.992,186.496 280.192,186.368 C280.064,189.824 281.984,191.616 285.056,192.64 C292.224,194.816 299.136,194.56 306.048,191.488 C307.84,190.72 309.248,189.312 311.296,189.312 C313.088,190.336 312.192,191.616 311.552,192.64 C307.072,201.088 302.592,209.536 298.112,217.984 C296.96,220.16 295.424,222.08 295.04,224.64 C295.04,224.64 295.04,224.512 295.04,224.512 C294.784,224.768 294.656,224.896 294.4,225.152 C293.888,225.92 292.864,226.176 292.096,226.688 C288.256,229.248 285.056,232.576 283.648,237.312 Z M285.952,212.736 C285.952,213.376 286.464,214.272 285.952,215.04 C283.904,217.984 283.392,221.44 281.728,224.512 C280.576,226.944 279.04,228.608 275.968,227.712 C274.816,227.328 273.664,227.84 273.408,229.12 C273.152,230.4 274.048,231.296 275.2,231.552 C277.76,232.192 280.832,232.32 283.264,229.376 C285.056,227.2 286.08,224.64 286.976,222.08 C287.616,220.032 288.384,217.984 290.048,216.448 C290.944,215.552 291.2,214.528 290.432,213.376 C289.408,211.968 289.792,210.56 290.432,209.28 C291.2,207.872 292.096,206.464 292.992,205.056 C293.76,203.776 294.656,202.496 295.04,200.96 C295.552,199.04 294.656,197.248 292.992,196.352 C291.072,195.328 288.384,195.456 287.232,196.608 C286.592,197.248 286.336,198.016 286.592,198.784 C286.848,199.68 287.616,200.064 288.512,200.064 C288.768,200.064 289.152,199.936 289.408,199.808 C289.92,199.68 290.432,199.424 290.816,199.936 C291.328,200.576 290.816,201.088 290.56,201.6 C289.792,202.88 288.896,204.16 288.128,205.44 C286.592,207.872 285.568,210.048 285.952,212.736 Z M170.624,222.208 C170.496,225.792 172.8,228.864 175.36,229.504 C176.64,229.76 177.92,229.632 178.432,228.224 C179.072,226.688 178.176,225.92 176.768,225.664 C175.104,225.28 174.592,224 174.72,222.464 C174.848,221.696 174.848,220.8 175.104,220.032 C175.744,217.472 174.976,214.784 175.616,212.48 C176.256,210.176 178.432,208.384 179.2,205.824 C179.712,204.288 180.224,202.752 180.864,201.216 C181.12,200.448 181.504,199.936 182.528,199.808 C184.576,199.552 185.216,198.656 184.96,197.248 C184.576,195.584 182.912,194.688 181.12,195.2 C179.584,195.712 178.56,196.864 177.792,198.272 C177.152,199.68 176.512,201.088 176.128,202.496 C175.104,205.568 174.08,208.64 171.008,210.56 C169.728,211.328 169.472,212.608 170.752,213.632 C172.032,214.784 171.904,216.064 171.648,217.6 C171.136,219.264 170.752,221.056 170.624,222.208 Z M216.192,208.384 C213.504,208.256 211.456,209.92 211.328,212.608 C211.2,215.168 212.992,217.344 215.424,217.472 C218.368,217.728 220.928,215.68 220.928,212.992 C220.8,210.048 219.264,208.512 216.192,208.384 Z M233.344,214.272 C233.344,211.456 231.552,209.664 228.48,209.664 C225.792,209.536 223.872,211.328 223.872,214.144 C223.872,216.832 225.792,218.624 228.608,218.624 C231.424,218.624 233.216,216.96 233.344,214.272 Z M241.792,209.664 C238.848,209.152 236.672,211.968 236.8,214.144 C236.928,216.448 238.592,217.984 241.28,217.984 C243.968,217.984 245.888,216.192 245.888,213.76 C246.016,211.072 244.48,209.664 241.792,209.664 Z" id="Shape" fill="#FDDB6D" fill-rule="nonzero"></path><path d="M238.72,309.376 C227.072,309.376 215.424,309.504 203.776,309.248 C188.288,308.736 172.928,308.992 157.44,308.864 C152.32,308.736 149.12,305.024 149.632,299.904 C150.4,293.632 153.728,289.152 159.104,285.952 C163.84,283.136 168.704,281.6 174.464,281.6 C200.448,281.856 226.432,281.728 252.416,281.856 C260.352,281.856 264.832,288.64 261.632,296.064 C259.712,300.416 256.384,303.488 252.416,306.048 C249.216,304.384 246.656,302.08 243.584,300.16 C242.688,299.648 241.92,298.88 241.024,298.496 C238.72,297.344 237.184,298.24 237.312,300.8 C237.44,302.592 237.952,304.384 238.208,306.176 C238.464,307.072 238.592,308.224 238.72,309.376 Z M203.008,294.784 C202.112,296.32 200.704,297.472 202.24,298.88 C203.52,300.032 204.672,299.136 205.824,298.368 C206.208,298.112 206.464,297.856 206.848,297.728 C208.896,296.832 210.944,296.192 213.12,296.96 C217.856,298.752 222.848,298.24 227.712,297.856 C228.48,297.856 229.12,297.728 229.888,297.472 C231.04,297.216 232.064,296.576 231.808,295.168 C231.552,293.888 230.656,293.504 229.504,293.632 C227.84,293.76 226.304,293.888 224.64,294.016 C221.696,294.144 218.624,294.4 215.808,293.504 C213.504,292.736 211.2,292.352 208.896,292.864 C208,292.992 207.36,293.12 206.592,292.352 C204.928,290.56 202.624,290.304 200.32,290.304 C195.456,290.176 190.976,291.456 186.88,293.888 C186.112,294.4 185.216,294.784 184.832,295.68 C184.32,296.576 184.32,297.472 185.088,298.24 C185.728,298.88 186.496,299.008 187.392,298.496 C187.776,298.24 188.16,297.856 188.672,297.6 C192.896,295.168 197.504,294.016 203.008,294.784 Z" id="Shape" fill="#5AC6FD" fill-rule="nonzero"></path><path d="M295.168,224.64 C295.552,222.208 297.088,220.16 298.24,217.984 C302.72,209.536 307.2,201.088 311.68,192.64 C312.32,191.488 313.216,190.208 311.424,189.312 C312.448,188.544 313.6,188.928 314.624,189.312 C321.92,192.384 328.192,196.864 333.056,203.136 C335.232,205.952 336.512,209.152 336.256,212.864 C336.128,216.32 335.232,217.344 331.776,217.856 C324.608,218.88 317.312,219.392 310.144,220.544 C305.408,221.312 300.672,222.464 296.32,224.512 C296.064,224.768 295.68,224.896 295.168,224.64 Z" id="Path" fill="#FDFDFE" fill-rule="nonzero"></path><path d="M242.688,304.64 C245.888,306.432 248.576,308.48 251.392,310.4 C255.36,313.344 259.584,316.16 263.552,319.104 C265.216,320.384 265.216,320.512 263.68,322.048 C263.424,322.304 263.04,322.688 262.784,322.944 C260.096,325.632 260.224,326.144 262.784,328.96 C265.856,332.288 268.288,336.256 271.488,339.584 C272.896,341.12 272.768,342.016 271.104,343.424 C269.696,344.704 268.672,347.264 266.88,346.88 C265.472,346.624 264.832,344.064 263.936,342.528 C261.888,339.2 259.968,335.872 257.792,332.672 C255.744,329.6 254.08,329.472 251.392,332.032 C250.496,332.8 249.856,334.464 248.576,334.208 C247.04,333.824 247.424,332.032 247.296,330.752 C245.888,322.944 244.48,315.136 243.072,307.456 C242.816,306.688 242.176,305.92 242.688,304.64 Z" id="Path" fill="#363F5E" fill-rule="nonzero"></path><path d="M286.976,184.704 C291.072,184.96 294.784,183.424 298.624,182.656 C303.36,181.632 307.968,179.968 312.832,179.072 C317.056,178.304 320.768,178.944 324.224,180.992 C330.88,184.832 336.256,189.952 339.456,197.248 C340.864,200.576 341.248,204.032 340.096,207.616 C338.688,206.464 338.56,204.544 337.664,203.008 C335.104,198.656 331.392,195.456 327.552,192.512 C324.48,189.952 320.896,188.16 317.312,186.368 C313.984,184.832 310.912,184.576 307.712,186.496 C303.104,189.184 298.112,190.464 292.736,190.336 C290.56,190.336 288.512,189.824 286.464,189.056 C284.16,188.288 284.032,187.008 285.824,185.344 C286.208,184.832 286.592,184.832 286.976,184.704 Z" id="Path" fill="#B15636" fill-rule="nonzero"></path><path d="M306.176,133.12 C307.072,135.424 307.2,137.856 307.84,140.288 C309.76,147.456 313.728,153.472 318.08,159.36 C320.768,162.944 323.328,166.656 327.424,168.96 C328.192,169.472 328.448,170.112 328.448,171.008 C326.912,170.88 325.376,170.624 323.968,170.368 C322.304,170.112 320.896,169.344 319.616,168.192 C313.728,162.304 308.992,155.52 305.536,147.968 C303.488,143.488 302.976,138.752 305.536,134.144 C305.664,133.632 305.92,133.376 306.176,133.12 Z" id="Path" fill="#B15636" fill-rule="nonzero"></path><path d="M102.4,226.56 C101.248,226.56 100.224,225.536 100.48,224.384 C100.608,223.744 100.992,223.104 101.376,222.464 C105.216,215.936 109.44,209.664 113.664,203.52 C114.048,202.88 114.56,202.368 115.072,201.856 C115.84,201.216 116.736,201.088 117.504,201.728 C118.272,202.368 118.272,203.136 118.016,203.904 C117.888,204.416 117.504,204.8 117.248,205.184 C112.896,211.456 108.672,217.856 104.704,224.384 C104.192,225.28 103.68,226.432 102.4,226.56 Z" id="Path" fill="#FAF9FD" fill-rule="nonzero"></path><path d="M100.864,204.16 C101.76,204.16 102.528,204.416 102.784,205.056 C103.168,205.824 103.04,206.72 102.4,207.36 C101.248,208.384 99.968,209.28 98.816,210.304 C97.664,211.328 95.744,211.84 95.488,213.248 C95.232,214.656 96.896,215.68 97.664,216.832 C97.92,217.216 98.304,217.728 98.432,218.112 C98.816,219.008 98.688,219.904 97.792,220.544 C97.024,221.056 96.128,220.928 95.616,220.288 C93.952,218.368 92.288,216.448 91.392,214.016 C90.88,212.608 91.392,211.328 92.416,210.432 C94.848,208.384 97.408,206.592 99.84,204.672 C100.224,204.288 100.608,204.288 100.864,204.16 Z" id="Path" fill="#FAF9FD" fill-rule="nonzero"></path><path d="M124.416,213.76 C123.392,212.48 122.368,211.456 121.6,210.304 C120.576,208.896 120.704,207.744 121.728,207.104 C123.008,206.336 123.776,206.976 124.672,208 C125.824,209.408 127.232,210.688 128.128,212.224 C129.152,214.144 129.024,215.552 127.232,216.832 C124.544,218.496 121.728,220.032 119.04,221.568 C118.144,222.08 117.12,221.952 116.608,220.928 C115.968,219.904 116.224,218.88 117.248,218.24 C118.528,217.344 119.808,216.704 121.216,215.808 C122.112,215.168 123.392,214.912 124.416,213.76 Z" id="Path" fill="#FAF9FD" fill-rule="nonzero"></path><path d="M334.464,134.784 C334.72,137.728 333.824,140.544 333.824,143.488 C333.824,147.712 334.592,151.68 335.744,155.648 C333.184,154.88 331.904,153.088 331.008,150.656 C329.344,146.432 329.472,142.336 330.88,138.24 C331.264,137.088 331.776,135.936 332.544,135.04 C333.056,134.4 333.696,133.888 334.464,134.784 Z" id="Path" fill="#B15636" fill-rule="nonzero"></path><path d="M294.528,225.28 C294.784,225.024 294.912,224.896 295.168,224.64 C295.424,225.152 294.912,225.152 294.528,225.28 Z" id="Path" fill="#FDFDFE" fill-rule="nonzero"></path><path d="M373.888,186.624 C374.528,186.624 375.168,187.264 375.808,187.776 C377.6,189.568 379.52,191.36 381.184,193.152 C385.408,197.632 389.632,202.112 393.856,206.592 C395.52,208.384 395.776,209.536 394.88,210.56 C393.856,211.584 392.832,211.2 391.04,209.408 C384.896,203.392 379.52,196.736 373.248,190.848 C372.608,190.336 372.096,189.696 371.968,188.8 C371.584,187.52 372.48,186.496 373.888,186.624 Z" id="Path" fill="#FAF9FD" fill-rule="nonzero"></path><path d="M444.032,274.944 C444.032,275.712 443.776,276.352 443.008,276.736 C442.368,277.12 441.472,277.12 440.96,276.608 C439.168,274.816 437.632,272.768 436.608,270.464 C436.224,269.568 436.48,268.672 437.504,268.16 C438.144,267.776 438.912,267.776 439.424,268.416 C441.216,270.336 442.624,272.384 443.904,274.56 C443.904,274.432 443.904,274.688 444.032,274.944 Z" id="Path" fill="#FAF9FD" fill-rule="nonzero"></path><path d="M406.144,220.544 C406.272,221.696 405.248,222.72 403.968,222.464 C402.304,222.208 400.64,220.032 400.896,218.368 C401.024,217.088 402.176,216.32 403.328,216.704 C404.224,217.088 406.144,219.648 406.144,220.544 Z" id="Path" fill="#FAF9FD" fill-rule="nonzero"></path><path d="M166.784,71.04 C173.952,72.576 179.968,69.248 186.112,66.432 C190.976,64.128 195.968,61.824 200.832,59.648 C201.344,59.392 201.728,59.136 202.24,59.008 C204.672,58.368 206.336,59.52 206.08,62.208 C205.952,64.128 205.312,66.048 204.672,67.84 C204.16,68.992 204.416,69.76 205.568,70.272 C211.456,72.96 212.096,78.848 210.048,84.48 C207.488,91.648 201.856,94.976 194.816,96.256 C192.896,96.64 192,97.28 191.232,98.944 C190.08,101.632 188.8,104.32 187.392,107.008 C185.216,111.104 183.424,111.616 179.584,109.056 C175.488,106.24 171.52,103.04 167.808,99.712 C166.656,98.688 165.504,97.664 164.224,96.768 C162.944,95.872 162.048,96.256 161.792,97.792 C161.024,100.992 160.768,104.192 161.408,107.52 C162.688,113.536 160.384,113.92 154.88,113.408 C153.856,113.28 153.088,112.512 152.704,111.488 C150.528,107.008 148.096,102.528 148.224,97.28 C148.224,96.512 147.968,95.872 147.456,95.36 C144.64,92.416 144.128,88.96 145.152,85.12 C146.432,79.872 149.248,75.648 153.856,72.576 C155.392,71.552 156.928,71.04 158.72,71.04 C161.408,71.04 164.096,71.04 166.784,71.04 Z M201.6,63.488 C193.92,67.072 186.752,70.4 179.712,73.728 C178.688,74.24 177.92,74.88 177.28,75.904 C175.744,78.336 174.08,80.64 172.672,83.072 C170.88,86.016 169.216,89.088 167.552,92.16 C167.168,92.8 166.912,93.44 167.68,94.08 C172.288,97.92 176.896,101.888 181.76,105.344 C182.912,106.112 183.68,105.856 184.192,104.832 C184.576,104.192 184.832,103.552 185.216,102.912 C189.056,94.976 192.128,86.784 195.968,78.848 C198.272,74.24 200.064,69.248 201.6,63.488 Z M172.672,74.88 C168.704,74.88 164.992,74.752 161.152,74.88 C157.824,75.008 154.752,75.648 152.576,78.72 C151.168,80.768 149.888,82.816 149.12,85.12 C148.608,86.784 148.608,88.32 148.864,89.984 C148.992,91.008 149.632,91.904 150.912,91.904 C154.112,91.904 157.184,92.8 160.384,92.672 C161.92,92.544 162.944,92.16 163.712,90.752 C166.4,85.76 169.088,80.64 172.416,76.032 C172.672,75.648 172.544,75.52 172.672,74.88 Z M194.688,91.648 C195.072,91.776 195.328,91.904 195.456,91.904 C202.112,90.24 206.336,86.144 207.104,79.36 C207.36,77.184 206.336,75.392 204.416,74.24 C203.008,73.344 202.496,73.472 201.856,75.008 C200.448,78.72 198.4,82.176 196.864,85.888 C196.224,87.68 195.072,89.472 194.688,91.648 Z M153.472,96 C152.064,95.872 151.936,96.128 152.064,97.536 C152.448,101.504 154.112,105.216 155.904,108.672 C156.032,109.056 156.416,109.312 156.8,109.312 C157.44,109.184 157.44,108.672 157.44,108.16 C157.44,105.472 157.568,102.912 157.312,100.224 C157.184,98.944 158.592,97.536 157.44,96.512 C156.544,95.616 154.88,96.384 153.472,96 Z" id="Shape" fill="#FAF9FD" fill-rule="nonzero"></path><path d="M219.776,82.048 C219.264,82.048 218.752,82.048 218.24,82.048 C217.344,81.92 216.704,81.408 216.576,80.512 C216.448,79.488 216.832,78.72 217.856,78.336 C218.24,78.208 218.624,77.952 219.008,77.952 C222.848,77.696 226.688,77.184 230.528,76.544 C230.784,76.544 231.168,76.544 231.424,76.544 C232.576,76.672 233.472,77.184 233.6,78.336 C233.728,79.744 232.832,80.384 231.552,80.64 C230.016,80.896 228.352,81.28 226.688,81.28 C224.384,81.408 222.08,82.048 219.776,82.048 Z" id="Path" fill="#FAF9FD" fill-rule="nonzero"></path><path d="M230.528,94.336 C230.656,95.872 229.248,97.024 227.84,96.512 C223.872,95.36 220.16,93.696 216.576,91.776 C216.448,91.776 216.448,91.648 216.32,91.648 C215.296,90.88 215.04,89.216 215.68,88.448 C216.448,87.552 217.472,87.552 218.368,88.192 C221.568,89.984 225.024,91.264 228.48,92.544 C229.504,92.928 230.272,93.44 230.528,94.336 Z" id="Path" fill="#FAF9FD" fill-rule="nonzero"></path><path d="M216.704,73.344 C215.04,73.344 214.144,71.936 214.912,70.528 C215.168,70.016 215.68,69.632 216.192,69.248 C219.136,67.456 222.08,65.536 225.152,64.128 C226.048,63.616 227.072,63.36 227.968,64.128 C228.992,64.896 228.864,66.56 227.712,67.2 C224.384,69.248 220.8,71.168 217.344,73.088 C217.216,73.344 216.96,73.344 216.704,73.344 Z" id="Path" fill="#FAF9FD" fill-rule="nonzero"></path><path d="M41.344,302.336 C41.344,303.36 40.448,304.384 39.424,304.256 C38.272,304.128 37.504,303.488 37.504,302.336 C37.376,301.312 38.4,300.416 39.424,300.416 C40.576,300.672 41.216,301.312 41.344,302.336 Z" id="Path" fill="#272E45" fill-rule="nonzero"></path><path d="M63.232,237.184 C63.36,238.208 62.336,239.232 61.312,239.232 C60.288,239.104 59.52,238.592 59.52,237.568 C59.392,236.544 60.032,235.776 61.056,235.648 C62.08,235.264 63.104,236.16 63.232,237.184 Z" id="Path" fill="#272E45" fill-rule="nonzero"></path><path d="M47.744,302.08 C47.744,303.232 46.976,304.256 45.824,304.128 C44.8,304 44.16,303.488 44.032,302.464 C43.904,301.44 44.928,300.416 45.952,300.544 C46.848,300.544 47.616,301.056 47.744,302.08 Z" id="Path" fill="#272E45" fill-rule="nonzero"></path><path d="M35.968,302.208 C35.84,303.232 35.328,303.872 34.176,304 C33.152,304.128 32.128,303.104 32.256,302.08 C32.384,301.056 33.024,300.416 34.048,300.288 C35.072,300.16 35.968,301.184 35.968,302.208 Z" id="Path" fill="#272E45" fill-rule="nonzero"></path><path d="M55.552,235.136 C56.576,235.264 57.216,235.776 57.344,236.8 C57.472,237.824 56.576,238.72 55.552,238.72 C54.528,238.72 53.632,237.824 53.76,236.8 C53.888,235.776 54.528,235.392 55.552,235.136 Z" id="Path" fill="#272E45" fill-rule="nonzero"></path><path d="M51.2,236.8 C51.2,237.824 50.688,238.464 49.664,238.592 C48.64,238.848 47.616,237.952 47.616,236.928 C47.488,235.904 48,235.136 49.152,235.008 C50.176,234.88 51.072,235.648 51.2,236.8 Z" id="Path" fill="#272E45" fill-rule="nonzero"></path><path d="M43.392,272.128 C42.368,272 41.728,271.36 41.728,270.336 C41.728,269.312 42.368,268.672 43.52,268.672 C44.544,268.672 45.184,269.312 45.184,270.464 C45.056,271.616 44.416,272 43.392,272.128 Z" id="Path" fill="#272E45" fill-rule="nonzero"></path><path d="M51.2,270.208 C51.072,271.232 50.56,271.872 49.408,271.872 C48.384,271.872 47.744,271.232 47.616,270.208 C47.488,269.184 48.512,268.16 49.408,268.288 C50.56,268.544 51.072,269.184 51.2,270.208 Z" id="Path" fill="#363F5E" fill-rule="nonzero"></path><path d="M55.68,268.928 C56.704,268.928 57.472,269.44 57.472,270.592 C57.6,271.616 56.96,272.384 55.936,272.384 C54.912,272.512 54.272,271.872 54.144,270.848 C54.144,269.824 54.784,269.184 55.68,268.928 Z" id="Path" fill="#272E45" fill-rule="nonzero"></path><path d="M520.32,98.688 C519.552,100.992 518.784,102.912 518.144,104.832 C511.36,123.264 504.576,141.696 497.792,160.128 C496.512,163.712 497.152,163.2 493.312,163.2 C476.544,162.944 459.776,162.816 443.008,162.432 C440.832,162.432 439.424,162.944 437.888,164.864 C433.536,170.112 428.672,175.104 424.064,180.096 C423.04,181.248 422.016,182.272 420.608,183.808 C420.736,180.608 421.632,178.048 422.016,175.488 C422.528,172.672 423.168,169.856 423.68,167.04 C424.32,163.84 423.424,162.816 420.224,163.072 C416.896,163.328 413.44,163.584 410.112,163.84 C409.472,163.84 408.832,163.968 408.32,163.712 C407.936,162.688 408.576,161.92 408.832,161.152 C416,141.312 423.168,121.6 430.464,101.76 C431.36,99.2 431.36,99.2 434.176,99.072 C462.08,98.944 489.984,98.688 518.016,98.56 C518.528,98.56 519.168,98.56 520.32,98.688 Z M463.36,119.04 C462.336,119.168 461.184,119.168 459.904,119.424 C457.344,119.808 456.576,121.088 457.856,123.52 C458.752,125.312 459.52,127.232 460.8,128.512 C463.488,131.328 462.976,134.144 461.44,137.088 C460.8,138.368 460.16,139.648 459.52,140.928 C459.136,141.696 458.624,142.592 458.368,143.36 C457.984,144.256 457.984,145.152 458.752,145.92 C459.648,146.816 460.544,146.688 461.568,146.304 C462.336,145.92 462.976,145.536 463.744,145.152 C465.92,143.872 468.224,142.592 470.272,141.184 C472.064,140.032 473.728,140.032 475.392,141.184 C477.44,142.464 479.488,143.872 481.664,145.024 C484.352,146.688 486.016,145.664 485.888,142.464 C485.888,140.288 485.504,138.24 485.248,136.064 C484.992,133.248 484.864,133.248 487.424,132.096 C489.216,131.2 491.136,130.304 492.928,129.408 C494.08,128.768 495.104,128.128 494.976,126.592 C494.848,125.184 493.696,124.672 492.416,124.288 C489.856,123.392 487.168,122.496 484.608,121.728 C483.2,121.344 482.56,120.704 482.56,119.296 C482.432,116.736 482.048,114.176 481.792,111.616 C481.664,110.336 481.28,109.184 479.872,108.8 C478.592,108.416 477.696,109.312 477.056,110.208 C475.136,112.512 473.088,114.944 471.296,117.376 C470.144,119.04 468.864,119.936 466.688,119.296 C465.536,119.04 464.512,119.04 463.36,119.04 Z M444.416,106.112 C451.072,106.496 457.728,105.344 464.256,105.472 C477.184,105.728 489.984,104.448 502.912,104.832 C503.296,104.832 503.68,104.832 504.192,104.832 C504.704,104.704 505.216,104.576 505.6,104.32 C506.24,104.064 506.88,103.552 506.88,102.784 C506.88,101.888 506.24,101.248 505.6,100.864 C504.832,100.48 504.064,100.608 503.168,100.608 C498.304,100.736 493.44,100.864 488.448,100.992 C479.104,101.504 469.632,101.248 460.288,101.632 C451.584,101.888 442.88,102.016 434.304,102.4 C433.792,102.4 433.28,102.4 432.768,102.528 C431.872,102.784 431.488,103.424 431.488,104.448 C431.488,105.216 432,105.856 432.64,105.984 C433.28,106.112 434.048,106.112 434.816,106.112 C438.144,106.112 441.344,106.112 444.416,106.112 Z M441.6,128.128 C442.496,124.8 443.264,121.728 444.032,118.656 C444.8,115.84 444.672,115.84 447.616,115.968 C451.2,116.224 454.784,116.48 458.368,116.608 C459.648,116.736 460.672,116.096 460.672,114.688 C460.672,113.408 459.776,112.896 458.624,112.768 C453.632,112.384 448.64,111.872 443.648,111.616 C441.728,111.488 441.088,112.128 440.832,114.048 C440.704,115.328 440.448,116.48 440.192,117.632 C439.296,120.96 438.4,124.288 437.376,127.744 C436.224,131.84 437.248,132.992 441.344,132.224 C443.904,131.712 446.464,131.968 448.896,132.608 C450.048,132.864 450.304,133.632 449.92,134.656 C449.536,135.552 449.024,136.192 448.384,136.832 C446.72,138.496 444.8,139.52 442.88,140.8 C441.472,141.696 439.936,142.592 438.528,143.616 C437.632,144.256 437.248,145.28 438.016,146.304 C438.656,147.2 439.552,147.328 440.448,146.816 C444.544,144.384 448.768,142.336 451.968,138.752 C453.76,136.832 455.04,134.528 453.888,131.712 C452.864,129.152 450.432,128.768 448.128,128.256 C447.616,128.128 447.104,128.128 446.592,128.128 C445.056,128.128 443.392,128.128 441.6,128.128 Z M512.128,101.12 C510.464,101.12 509.568,101.76 509.568,103.04 C509.568,104.192 510.72,105.344 512,105.344 C513.408,105.344 514.432,104.448 514.432,103.296 C514.56,101.76 513.792,101.12 512.128,101.12 Z" id="Shape" fill="#A7DEFB" fill-rule="nonzero"></path><path d="M507.648,172.928 C505.344,169.856 503.296,167.424 501.248,164.736 C500.48,163.712 500.992,162.816 501.248,161.792 C502.912,157.312 504.576,152.704 506.24,148.224 C511.744,133.376 517.248,118.528 522.752,103.552 C523.008,102.784 523.136,101.888 523.904,101.248 C525.696,102.656 526.72,104.96 528.512,106.368 C531.84,109.184 531.456,112 530.048,115.712 C522.88,133.504 515.968,151.552 509.056,169.472 C508.672,170.496 508.288,171.392 507.648,172.928 Z" id="Path" fill="#58C2F9" fill-rule="nonzero"></path><path d="M503.68,174.848 C502.528,175.488 501.504,175.36 500.608,175.36 C485.12,175.488 469.76,175.488 454.272,175.616 C452.096,175.616 450.688,174.976 449.536,173.184 C448.256,171.008 446.592,169.088 445.184,167.04 C445.696,166.144 446.336,166.4 446.976,166.4 C463.232,166.656 479.488,166.784 495.744,167.04 C497.28,167.04 498.432,167.552 499.328,168.832 C500.736,170.752 502.4,172.544 503.68,174.848 Z" id="Path" fill="#58C2F9" fill-rule="nonzero"></path><path d="M428.544,200.832 C425.6,197.76 422.656,194.688 419.84,191.744 C419.072,190.976 419.712,190.464 420.224,189.952 C422.528,187.392 424.832,184.832 427.264,182.272 C431.232,177.92 435.2,173.44 439.296,169.088 C440.704,167.552 440.832,167.552 441.984,169.216 C443.52,171.264 444.928,173.44 446.464,175.488 C447.872,177.408 447.872,177.536 446.336,179.328 C441.728,184.96 437.248,190.592 432.64,196.352 C431.36,197.76 430.336,199.424 428.544,200.832 Z" id="Path" fill="#58C2F9" fill-rule="nonzero"></path><path d="M409.6,168.064 C412.8,167.296 415.616,167.424 418.304,167.04 C419.584,166.912 419.584,167.808 419.328,168.704 C418.816,171.008 418.432,173.312 417.792,176.128 C414.848,173.568 412.416,170.88 409.6,168.064 Z" id="Path" fill="#58C2F9" fill-rule="nonzero"></path><path d="M73.984,357.12 C73.984,358.528 71.808,360.448 70.4,360.192 C69.76,360.064 69.632,359.552 69.632,359.04 C69.76,357.888 70.272,356.992 71.04,356.096 C71.552,355.584 71.936,354.56 72.96,354.944 C73.728,355.456 73.984,356.224 73.984,357.12 Z" id="Path" fill="#FAF9FD" fill-rule="nonzero"></path><path d="M286.592,21.76 C320.384,22.144 354.176,22.528 387.968,22.912 C388.864,22.912 389.76,22.912 390.656,23.168 C391.552,23.296 392.064,24.064 392.064,24.96 C392.064,25.856 391.552,26.496 390.656,26.752 C389.76,26.88 388.864,26.88 387.968,26.88 C358.656,26.624 329.216,26.24 299.904,25.984 C267.52,25.6 235.008,25.216 202.624,24.96 C196.48,24.832 190.336,24.832 184.192,24.704 C181.888,24.704 180.992,24.064 180.992,22.656 C180.992,21.376 182.016,20.736 184.192,20.736 C194.048,20.864 203.904,20.992 213.632,21.12 C237.824,21.248 262.144,21.504 286.592,21.76 C286.592,21.76 286.592,21.76 286.592,21.76 Z" id="Path" fill="#272E45" fill-rule="nonzero"></path><path d="M321.152,79.488 C322.688,79.36 323.968,78.592 325.248,78.08 C327.168,77.312 328.96,76.416 331.008,75.904 C333.44,75.264 335.488,75.648 336.896,77.952 C337.92,79.744 339.456,79.744 341.12,79.36 C343.808,78.72 346.368,77.696 348.8,76.416 C352.128,74.624 355.968,74.88 359.552,74.368 C360.704,74.24 361.6,74.88 361.6,76.16 C361.728,77.44 360.832,78.08 359.808,78.208 C358.144,78.464 356.352,78.72 354.688,78.848 C353.152,78.976 351.744,79.36 350.336,80.128 C347.776,81.408 345.088,82.56 342.272,83.2 C339.072,83.84 335.872,83.968 333.824,80.512 C333.312,79.488 332.416,79.488 331.392,79.744 C330.112,80.256 328.96,80.64 327.68,81.152 C326.272,81.792 324.864,82.432 323.456,82.944 C319.488,84.224 317.696,83.2 316.8,79.232 C316.672,78.848 316.672,78.464 316.544,78.08 C316.032,76.544 315.008,76.288 313.856,77.44 C312.96,78.336 312.32,79.36 311.424,80.128 C309.504,82.048 307.328,83.584 304.768,84.48 C303.488,84.864 302.08,85.12 301.056,83.968 C299.904,82.816 300.16,81.28 300.672,80 C301.44,78.208 302.72,76.928 304.256,75.904 C306.176,74.496 308.352,73.728 310.656,73.088 C312.704,72.576 314.496,69.376 314.112,67.328 C313.856,66.304 313.216,66.048 312.448,65.792 C310.784,65.408 309.248,65.536 307.584,65.92 C299.136,67.84 292.608,72.576 286.976,78.976 C286.464,79.616 285.952,80.256 285.312,80.768 C284.672,81.408 283.904,81.664 283.136,81.152 C282.24,80.512 281.984,79.744 282.368,78.72 C282.624,78.208 282.88,77.568 283.264,77.184 C289.28,70.016 296.448,64.768 305.664,62.336 C307.712,61.824 309.888,61.568 312.064,61.824 C316.8,62.208 318.976,65.28 317.952,69.76 C317.824,70.4 317.568,71.168 317.312,71.808 C317.184,72.32 316.928,72.96 317.44,73.216 C320.128,74.368 320.512,76.928 321.152,79.488 Z" id="Path" fill="#272E45" fill-rule="nonzero"></path><path d="M192.256,142.208 C182.4,142.208 172.544,142.208 162.816,142.208 C161.92,142.208 161.024,142.208 160.128,142.08 C159.104,141.824 158.592,141.184 158.592,140.032 C158.592,139.136 159.232,138.496 160.128,138.24 C160.768,138.112 161.536,138.112 162.304,138.112 C182.4,137.984 202.368,137.984 222.464,137.984 C223.232,137.984 223.872,137.984 224.64,138.112 C225.536,138.368 226.048,138.88 226.048,139.904 C226.048,140.8 225.536,141.568 224.64,141.696 C223.744,141.824 222.848,141.824 221.952,141.824 C212.096,141.824 202.24,141.824 192.512,141.824 C192.256,141.952 192.256,142.08 192.256,142.208 Z" id="Path" fill="#272E45" fill-rule="nonzero"></path><path d="M249.472,161.408 C256,161.408 262.528,161.408 269.056,161.408 C269.952,161.408 270.848,161.28 271.744,161.664 C272.512,162.048 273.024,162.56 273.024,163.584 C273.024,164.352 272.512,164.992 271.744,165.12 C271.104,165.376 270.336,165.504 269.696,165.504 C256,165.76 242.304,165.888 228.608,166.144 C228.352,166.144 227.968,166.144 227.712,166.144 C226.048,166.016 225.024,165.12 225.28,163.968 C225.536,162.688 226.56,162.176 227.712,162.048 C228.48,161.92 229.12,162.048 229.888,162.048 C236.416,162.048 242.944,162.048 249.472,162.048 C249.472,161.792 249.472,161.664 249.472,161.408 Z" id="Path" fill="#272E45" fill-rule="nonzero"></path><path d="M259.968,142.208 C253.568,142.208 247.04,142.208 240.64,142.208 C237.952,142.208 236.8,141.568 236.8,140.16 C236.8,138.88 237.952,138.24 240.384,138.112 C253.312,137.856 266.368,137.6 279.296,137.472 C279.936,137.472 280.576,137.472 281.088,137.6 C282.112,137.728 282.752,138.24 282.88,139.392 C283.008,140.544 282.368,141.184 281.344,141.312 C280.448,141.44 279.552,141.568 278.656,141.568 C272.384,141.568 266.24,141.568 259.968,141.568 C259.968,141.696 259.968,141.952 259.968,142.208 Z" id="Path" fill="#272E45" fill-rule="nonzero"></path><path d="M297.6,102.016 C291.712,102.016 285.696,102.016 279.808,102.016 C278.912,102.016 278.016,102.016 277.12,101.888 C276.224,101.76 275.712,101.12 275.584,100.224 C275.456,99.328 276.096,98.688 276.864,98.432 C277.504,98.176 278.272,98.176 278.912,98.176 C291.456,98.048 304,97.792 316.672,97.664 C316.928,97.664 317.056,97.664 317.312,97.664 C319.104,97.792 320.256,98.56 320.128,99.712 C320.128,100.864 318.976,101.76 317.184,101.76 C310.656,101.76 304.128,101.76 297.6,101.76 C297.6,101.76 297.6,101.888 297.6,102.016 Z" id="Path" fill="#272E45" fill-rule="nonzero"></path><path d="M169.6,165.632 C163.584,165.632 157.568,165.632 151.552,165.632 C149.12,165.632 147.968,164.992 147.968,163.712 C147.968,162.432 148.992,161.664 151.424,161.664 C163.456,161.664 175.488,161.792 187.52,161.792 C189.824,161.792 190.72,162.432 190.72,163.712 C190.72,164.992 189.824,165.76 187.52,165.76 C181.632,165.632 175.616,165.632 169.6,165.632 C169.6,165.632 169.6,165.632 169.6,165.632 Z" id="Path" fill="#272E45" fill-rule="nonzero"></path><path d="M375.168,11.136 C378.496,11.136 381.696,11.136 385.024,11.136 C385.28,11.136 385.664,11.136 385.92,11.136 C388.096,11.136 389.12,11.776 389.12,13.056 C389.12,14.336 388.096,15.104 385.92,15.104 C378.752,15.232 371.584,15.36 364.416,15.488 C364.032,15.488 363.648,15.488 363.136,15.488 C361.856,15.36 360.832,14.976 360.832,13.568 C360.832,12.16 361.856,11.648 363.136,11.648 C364.544,11.648 365.952,11.648 367.488,11.648 C370.048,11.648 372.608,11.648 375.168,11.648 C375.168,11.264 375.168,11.136 375.168,11.136 Z" id="Path" fill="#242940" fill-rule="nonzero"></path><path d="M212.992,18.432 C211.072,18.432 209.792,17.92 208.512,17.024 C207.616,16.256 206.976,15.36 206.848,14.208 C206.592,12.16 208.128,10.112 210.432,8.96 C212.736,7.808 214.784,8.064 216.32,9.728 C217.856,11.264 218.368,13.824 217.472,15.616 C216.576,17.792 214.784,18.304 212.992,18.432 Z M211.2,13.568 C211.968,14.592 212.864,14.72 213.76,13.952 C214.144,13.568 214.144,12.928 213.632,12.672 C212.608,12.032 211.968,12.544 211.328,13.312 C211.328,13.44 211.2,13.44 211.2,13.568 Z" id="Shape" fill="#272E45" fill-rule="nonzero"></path><path d="M228.992,9.216 C232.192,9.216 234.24,10.752 234.368,13.312 C234.496,16 231.68,18.816 228.864,18.816 C226.432,18.816 223.872,16.384 223.872,13.952 C223.872,11.392 226.176,9.216 228.992,9.216 Z M229.12,14.592 C229.632,14.592 230.144,14.336 230.144,13.824 C230.144,13.312 229.632,13.312 229.376,13.312 C228.864,13.312 228.352,13.184 228.352,13.952 C228.224,14.336 228.736,14.464 229.12,14.592 Z" id="Shape" fill="#272E45" fill-rule="nonzero"></path><path d="M200.576,13.056 C200.576,15.872 198.4,17.92 195.456,17.92 C192.64,17.92 190.72,16 190.72,13.44 C190.72,10.624 193.408,7.68 196.096,7.68 C197.76,7.68 200.448,10.752 200.576,13.056 Z M195.328,13.824 C195.968,13.824 196.352,13.568 196.352,12.928 C196.352,12.416 196.096,11.904 195.456,12.032 C194.944,12.16 194.688,12.544 194.56,13.184 C194.56,13.696 195.072,13.824 195.328,13.824 Z" id="Shape" fill="#272E45" fill-rule="nonzero"></path><path d="M207.872,165.12 C206.208,165.12 204.544,165.12 203.008,165.12 C201.856,165.12 200.96,164.608 200.832,163.456 C200.704,162.048 201.6,161.408 202.88,161.28 C206.592,160.896 210.176,160.768 213.888,160.768 C215.168,160.768 216.064,161.408 216.064,162.816 C216.064,164.096 215.168,164.608 214.016,164.608 C211.968,164.736 209.92,164.864 207.872,164.992 C207.872,164.992 207.872,164.992 207.872,165.12 Z" id="Path" fill="#272E45" fill-rule="nonzero"></path><path d="M335.488,97.536 C336.768,97.536 338.176,97.536 339.456,97.536 C340.736,97.664 341.76,98.176 341.76,99.456 C341.888,100.864 340.736,101.376 339.584,101.504 C336.896,101.632 334.336,101.632 331.648,101.632 C330.496,101.632 329.472,100.992 329.472,99.584 C329.6,98.176 330.624,97.792 331.776,97.664 C333.056,97.536 334.208,97.664 335.488,97.536 C335.488,97.664 335.488,97.536 335.488,97.536 Z" id="Path" fill="#272E45" fill-rule="nonzero"></path><path d="M285.952,212.736 C285.696,210.048 286.72,207.872 287.872,205.696 C288.64,204.416 289.536,203.136 290.304,201.856 C290.56,201.344 291.072,200.832 290.56,200.192 C290.176,199.68 289.664,199.936 289.152,200.064 C288.896,200.192 288.512,200.192 288.256,200.32 C287.36,200.32 286.72,199.936 286.336,199.04 C286.08,198.144 286.336,197.504 286.976,196.864 C288.256,195.712 290.944,195.584 292.736,196.608 C294.528,197.632 295.296,199.296 294.784,201.216 C294.4,202.752 293.632,204.032 292.736,205.312 C291.84,206.72 290.944,208.128 290.176,209.536 C289.536,210.816 289.152,212.224 290.176,213.632 C290.944,214.656 290.688,215.808 289.792,216.704 C288.128,218.24 287.488,220.288 286.72,222.336 C285.824,225.024 284.672,227.456 283.008,229.632 C280.576,232.704 277.504,232.448 274.944,231.808 C273.792,231.552 272.896,230.656 273.152,229.376 C273.408,227.968 274.56,227.584 275.712,227.968 C278.784,228.864 280.192,227.072 281.472,224.768 C283.008,221.696 283.648,218.112 285.696,215.296 C286.464,214.272 285.824,213.376 285.952,212.736 Z" id="Path" fill="#242940" fill-rule="nonzero"></path><path d="M170.624,222.208 C170.88,220.928 171.264,219.264 171.52,217.6 C171.776,216.192 171.904,214.912 170.624,213.632 C169.472,212.608 169.728,211.2 170.88,210.56 C173.952,208.768 174.976,205.696 176,202.496 C176.512,201.088 177.024,199.68 177.664,198.272 C178.304,196.864 179.456,195.712 180.992,195.2 C182.784,194.56 184.448,195.456 184.832,197.248 C185.216,198.784 184.448,199.68 182.4,199.808 C181.376,199.936 180.992,200.448 180.736,201.216 C180.224,202.752 179.584,204.288 179.072,205.824 C178.304,208.256 176.128,210.176 175.488,212.48 C174.848,214.784 175.744,217.472 174.976,220.032 C174.72,220.8 174.72,221.696 174.592,222.464 C174.464,224 174.976,225.28 176.64,225.664 C178.048,226.048 178.944,226.816 178.304,228.224 C177.792,229.632 176.512,229.76 175.232,229.504 C172.672,228.864 170.496,225.792 170.624,222.208 Z" id="Path" fill="#242940" fill-rule="nonzero"></path><path d="M216.192,208.384 C219.264,208.512 220.8,210.048 220.8,212.992 C220.8,215.68 218.24,217.728 215.296,217.472 C212.864,217.344 211.072,215.168 211.2,212.608 C211.456,210.048 213.504,208.256 216.192,208.384 Z M216.576,212.736 C216.448,212.352 216.32,212.096 215.936,212.224 C215.68,212.352 215.424,212.48 215.424,212.736 C215.424,213.248 215.808,213.376 216.192,213.248 C216.448,213.376 216.448,212.992 216.576,212.736 Z" id="Shape" fill="#242940" fill-rule="nonzero"></path><path d="M233.344,214.272 C233.344,217.088 231.552,218.752 228.608,218.624 C225.792,218.624 224,216.704 223.872,214.144 C223.872,211.328 225.664,209.536 228.48,209.664 C231.552,209.664 233.344,211.456 233.344,214.272 Z M228.736,213.504 C228.352,213.376 228.096,213.632 228.096,213.888 C228.096,214.144 228.224,214.528 228.48,214.528 C228.864,214.656 229.248,214.528 229.248,214.016 C229.248,213.76 228.992,213.632 228.736,213.504 Z" id="Shape" fill="#242940" fill-rule="nonzero"></path><path d="M241.792,209.664 C244.48,209.664 245.888,211.072 245.888,213.76 C245.888,216.192 243.968,217.984 241.28,217.984 C238.592,217.984 236.8,216.448 236.8,214.144 C236.672,211.968 238.976,209.152 241.792,209.664 Z" id="Path" fill="#242940" fill-rule="nonzero"></path><path d="M203.008,294.784 C197.504,294.016 192.896,295.04 188.544,297.6 C188.16,297.856 187.776,298.24 187.264,298.496 C186.496,299.008 185.728,298.88 184.96,298.24 C184.192,297.472 184.192,296.576 184.704,295.68 C185.216,294.912 185.984,294.4 186.752,293.888 C190.976,291.584 195.456,290.176 200.192,290.304 C202.496,290.304 204.672,290.56 206.464,292.352 C207.104,292.992 207.872,292.992 208.768,292.864 C211.2,292.48 213.376,292.736 215.68,293.504 C218.496,294.528 221.568,294.144 224.512,294.016 C226.176,294.016 227.712,293.76 229.376,293.632 C230.528,293.632 231.424,294.016 231.68,295.168 C231.936,296.576 231.04,297.216 229.76,297.472 C229.12,297.6 228.352,297.728 227.584,297.856 C222.72,298.24 217.728,298.624 212.992,296.96 C210.816,296.192 208.768,296.832 206.72,297.728 C206.336,297.856 206.08,298.112 205.696,298.368 C204.544,299.008 203.392,300.032 202.112,298.88 C200.704,297.6 202.112,296.32 203.008,294.784 Z" id="Path" fill="#202B45" fill-rule="nonzero"></path><path d="M201.6,63.488 C200.064,69.248 198.272,74.24 195.968,78.976 C192,86.784 189.056,95.104 185.216,103.04 C184.96,103.68 184.576,104.32 184.192,104.96 C183.552,105.984 182.912,106.368 181.76,105.472 C176.768,102.016 172.288,98.048 167.68,94.208 C166.912,93.568 167.296,92.928 167.552,92.288 C169.216,89.216 170.88,86.144 172.672,83.2 C174.08,80.768 175.744,78.464 177.28,76.032 C177.92,75.008 178.688,74.368 179.712,73.856 C186.752,70.4 193.92,67.072 201.6,63.488 Z" id="Path" fill="#A89EFE" fill-rule="nonzero"></path><path d="M172.672,74.88 C172.544,75.52 172.672,75.776 172.544,75.904 C169.216,80.512 166.528,85.632 163.84,90.624 C163.072,92.16 162.048,92.544 160.512,92.544 C157.312,92.672 154.24,91.904 151.04,91.776 C149.76,91.776 149.12,91.008 148.992,89.856 C148.736,88.192 148.736,86.656 149.248,84.992 C149.888,82.56 151.296,80.512 152.704,78.592 C154.752,75.52 157.952,74.88 161.28,74.752 C164.992,74.752 168.704,74.88 172.672,74.88 Z M157.056,82.688 C159.104,82.688 159.872,82.176 160,80.896 C160,79.488 158.976,79.104 157.952,78.72 C156.544,78.336 155.392,78.464 154.368,79.616 C153.984,80.128 153.984,80.768 154.24,81.28 C154.88,82.56 156.032,82.688 157.056,82.688 Z M155.264,88.192 C155.264,88.192 155.264,88.192 155.264,88.192 C155.648,88.192 156.032,88.192 156.416,88.192 C157.44,88.064 158.08,87.552 158.208,86.4 C158.208,85.12 157.568,84.48 156.288,84.48 C155.52,84.48 154.624,84.48 153.856,84.48 C152.704,84.608 151.936,85.12 151.936,86.4 C151.936,87.68 152.832,88.192 153.984,88.192 C154.368,88.192 154.752,88.192 155.264,88.192 Z" id="Shape" fill="#A89EFE" fill-rule="nonzero"></path><path d="M194.688,91.648 C194.944,89.344 196.096,87.68 196.992,85.76 C198.528,82.048 200.576,78.592 201.984,74.88 C202.624,73.344 203.136,73.216 204.544,74.112 C206.464,75.264 207.488,77.184 207.232,79.232 C206.464,86.016 202.24,90.112 195.584,91.776 C195.328,91.904 195.2,91.776 194.688,91.648 Z" id="Path" fill="#A89EFE" fill-rule="nonzero"></path><path d="M153.472,96 C154.752,96.384 156.544,95.616 157.568,96.64 C158.72,97.664 157.312,99.072 157.44,100.352 C157.568,103.04 157.568,105.6 157.568,108.288 C157.568,108.8 157.568,109.312 156.928,109.44 C156.544,109.44 156.16,109.184 156.032,108.8 C154.24,105.216 152.704,101.632 152.192,97.664 C151.936,96.128 152.192,96 153.472,96 Z" id="Path" fill="#A89EFE" fill-rule="nonzero"></path><path d="M463.36,119.04 C464.512,119.168 465.536,119.04 466.304,119.296 C468.48,119.936 469.76,119.04 470.912,117.376 C472.704,114.944 474.752,112.64 476.672,110.208 C477.44,109.312 478.208,108.416 479.488,108.8 C480.896,109.184 481.28,110.336 481.408,111.616 C481.664,114.176 482.048,116.736 482.176,119.296 C482.304,120.832 482.944,121.344 484.224,121.728 C486.912,122.496 489.472,123.52 492.032,124.288 C493.184,124.672 494.464,125.184 494.592,126.592 C494.72,128 493.696,128.768 492.544,129.408 C490.752,130.304 488.832,131.2 487.04,132.096 C484.608,133.248 484.608,133.248 484.864,136.064 C485.12,138.24 485.376,140.288 485.504,142.464 C485.632,145.664 483.968,146.56 481.28,145.024 C479.232,143.744 477.056,142.464 475.008,141.184 C473.216,140.16 471.552,140.032 469.888,141.184 C467.712,142.592 465.536,143.872 463.36,145.152 C462.72,145.536 461.952,146.048 461.184,146.304 C460.16,146.688 459.136,146.816 458.368,145.92 C457.6,145.152 457.6,144.256 457.984,143.36 C458.368,142.464 458.752,141.696 459.136,140.928 C459.776,139.648 460.416,138.368 461.056,137.088 C462.592,134.144 463.232,131.328 460.416,128.512 C459.136,127.104 458.368,125.184 457.472,123.52 C456.32,121.088 456.96,119.808 459.52,119.424 C461.184,119.168 462.336,119.168 463.36,119.04 Z M462.336,123.264 C462.976,125.056 464,126.72 465.152,128 C467.072,130.048 467.072,132.352 466.432,134.912 C465.92,136.448 465.408,137.856 464.768,139.776 C466.432,138.88 467.584,138.368 468.736,137.6 C471.296,135.936 473.984,136.064 476.544,137.472 C477.44,137.984 478.336,138.496 479.232,139.008 C479.872,139.392 480.384,140.16 481.536,139.648 C481.408,138.24 481.28,136.832 481.152,135.424 C480.768,131.968 481.408,131.072 484.48,129.28 C485.504,128.64 486.912,128.512 487.808,127.232 C485.632,126.464 483.712,125.824 481.792,125.312 C479.104,124.544 478.72,124.032 478.464,121.344 C478.336,119.552 478.208,117.76 478.08,115.456 C475.776,117.504 474.368,119.552 472.832,121.6 C471.424,123.52 469.76,124.16 467.584,123.648 C465.92,123.136 464.256,123.008 462.336,123.264 Z" id="Shape" fill="#242940" fill-rule="nonzero"></path><path d="M444.416,106.112 C441.216,106.112 438.016,106.112 434.944,106.112 C434.176,106.112 433.536,106.112 432.768,105.984 C432,105.856 431.616,105.216 431.616,104.448 C431.616,103.552 432,102.784 432.896,102.528 C433.408,102.4 433.92,102.4 434.432,102.4 C443.136,102.016 451.84,102.016 460.416,101.632 C469.76,101.248 479.232,101.504 488.576,100.992 C493.44,100.736 498.304,100.608 503.296,100.608 C504.064,100.608 504.96,100.48 505.728,100.864 C506.496,101.248 507.136,101.888 507.008,102.784 C507.008,103.552 506.368,104.064 505.728,104.32 C505.216,104.576 504.832,104.704 504.32,104.832 C503.936,104.96 503.552,104.832 503.04,104.832 C490.112,104.576 477.312,105.728 464.384,105.472 C457.728,105.344 451.072,106.496 444.416,106.112 Z" id="Path" fill="#FAF9FD" fill-rule="nonzero"></path><path d="M441.6,128.128 C443.52,128.128 445.056,128.128 446.72,128.128 C447.232,128.128 447.744,128.128 448.256,128.256 C450.56,128.768 452.992,129.152 454.016,131.712 C455.04,134.528 453.76,136.704 452.096,138.752 C448.896,142.336 444.672,144.384 440.576,146.816 C439.68,147.328 438.784,147.072 438.144,146.304 C437.376,145.28 437.76,144.256 438.656,143.616 C440.064,142.592 441.6,141.696 443.008,140.8 C444.928,139.52 446.848,138.496 448.512,136.832 C449.152,136.192 449.792,135.424 450.048,134.656 C450.432,133.632 450.176,132.864 449.024,132.608 C446.464,131.968 444.032,131.84 441.472,132.224 C437.376,132.992 436.48,131.84 437.504,127.744 C438.4,124.416 439.424,121.088 440.32,117.632 C440.576,116.48 440.832,115.2 440.96,114.048 C441.088,112.128 441.728,111.488 443.776,111.616 C448.768,112 453.76,112.384 458.752,112.768 C459.904,112.896 460.8,113.408 460.8,114.688 C460.8,116.096 459.776,116.608 458.496,116.608 C454.912,116.48 451.328,116.096 447.744,115.968 C444.928,115.84 444.928,115.84 444.16,118.656 C443.264,121.728 442.368,124.672 441.6,128.128 Z" id="Path" fill="#202B45" fill-rule="nonzero"></path><path d="M512.128,101.12 C513.792,101.12 514.56,101.76 514.56,103.168 C514.56,104.448 513.536,105.344 512.128,105.216 C510.848,105.216 509.696,104.192 509.696,102.912 C509.568,101.76 510.464,101.12 512.128,101.12 Z" id="Path" fill="#FAF9FD" fill-rule="nonzero"></path><path d="M211.2,13.568 C211.328,13.44 211.328,13.312 211.328,13.312 C211.968,12.544 212.736,12.032 213.632,12.672 C214.144,13.056 214.144,13.696 213.76,13.952 C212.736,14.72 211.84,14.592 211.2,13.568 Z" id="Path" fill="#FAF9FD" fill-rule="nonzero"></path><path d="M229.12,14.592 C228.736,14.464 228.352,14.464 228.352,13.952 C228.352,13.184 228.992,13.312 229.376,13.312 C229.76,13.312 230.272,13.312 230.144,13.824 C230.144,14.336 229.632,14.464 229.12,14.592 Z" id="Path" fill="#A7DEFB" fill-rule="nonzero"></path><path d="M195.328,13.824 C194.944,13.696 194.56,13.696 194.56,13.184 C194.56,12.672 194.816,12.16 195.456,12.032 C196.096,11.904 196.352,12.416 196.352,12.928 C196.48,13.568 196.096,13.952 195.328,13.824 Z" id="Path" fill="#A7DEFB" fill-rule="nonzero"></path><path d="M216.576,212.736 C216.448,212.864 216.32,213.248 216.192,213.376 C215.808,213.504 215.424,213.376 215.424,212.864 C215.424,212.48 215.68,212.352 215.936,212.352 C216.32,212.224 216.448,212.48 216.576,212.736 Z" id="Path" fill="#CC704F" fill-rule="nonzero"></path><path d="M228.736,213.504 C228.992,213.632 229.248,213.632 229.248,214.016 C229.248,214.528 228.864,214.656 228.48,214.528 C228.352,214.528 228.096,214.016 228.096,213.888 C228.096,213.632 228.48,213.504 228.736,213.504 Z" id="Path" fill="#CC704F" fill-rule="nonzero"></path><path d="M157.056,82.688 C156.032,82.688 154.88,82.56 154.112,81.28 C153.728,80.64 153.728,80.128 154.24,79.616 C155.264,78.592 156.416,78.336 157.824,78.72 C158.976,79.104 160,79.36 159.872,80.896 C159.872,82.176 159.104,82.688 157.056,82.688 Z" id="Path" fill="#FAF9FD" fill-rule="nonzero"></path><path d="M155.264,88.192 C154.88,88.192 154.496,88.192 153.984,88.192 C152.832,88.192 152.064,87.68 151.936,86.4 C151.936,85.12 152.704,84.608 153.856,84.48 C154.624,84.48 155.52,84.48 156.288,84.48 C157.44,84.608 158.208,85.12 158.208,86.4 C158.208,87.424 157.44,88.064 156.416,88.192 C156.032,88.192 155.648,88.192 155.264,88.192 C155.264,88.192 155.264,88.192 155.264,88.192 Z" id="Path" fill="#FAF9FD" fill-rule="nonzero"></path><path d="M462.336,123.264 C464.384,123.008 465.92,123.008 467.584,123.392 C469.888,123.776 471.424,123.264 472.832,121.344 C474.368,119.296 475.776,117.248 478.08,115.2 C478.208,117.504 478.208,119.296 478.464,121.088 C478.72,123.776 479.104,124.288 481.792,125.056 C483.712,125.696 485.632,126.336 487.808,126.976 C486.912,128.384 485.504,128.512 484.48,129.024 C481.408,130.816 480.896,131.712 481.152,135.168 C481.28,136.576 481.408,137.984 481.536,139.392 C480.384,140.032 479.872,139.136 479.232,138.752 C478.336,138.368 477.44,137.728 476.544,137.216 C473.856,135.808 471.296,135.552 468.736,137.344 C467.584,138.112 466.432,138.624 464.768,139.52 C465.408,137.6 465.92,136.192 466.432,134.656 C467.2,132.224 467.2,129.92 465.152,127.744 C463.872,126.72 462.976,125.056 462.336,123.264 Z" id="Path" fill="#FDDB6D" fill-rule="nonzero"></path></g></g></g></svg> 